<svg id="Layer_1" enable-background="new 0 0 512 512" height="512" viewBox="0 0 512 512" width="512" xmlns="http://www.w3.org/2000/svg" xmlns:xlink="http://www.w3.org/1999/xlink"><radialGradient id="XMLID_3_" cx="257" cy="182" gradientUnits="userSpaceOnUse" r="251"><stop offset=".7366" stop-color="#ffc970"/><stop offset="1" stop-color="#ffb233"/></radialGradient><linearGradient id="lg1"><stop offset=".4835" stop-color="#ebeae0"/><stop offset="1" stop-color="#d7d5c1"/></linearGradient><linearGradient id="XMLID_4_" gradientUnits="userSpaceOnUse" x1="256" x2="256" xlink:href="#lg1" y1="318.5" y2="497.101"/><linearGradient id="XMLID_5_" gradientUnits="userSpaceOnUse" x1="1.084" x2="75.98" xlink:href="#lg1" y1="54.366" y2="129.263"/><linearGradient id="XMLID_6_" gradientTransform="matrix(-1 0 0 1 1812 0)" gradientUnits="userSpaceOnUse" x1="1301.084" x2="1375.98" xlink:href="#lg1" y1="54.366" y2="129.263"/><g id="XMLID_1_"><g id="XMLID_4904_"><path id="XMLID_2970_" d="m507 5-16.7 10.1c-64.7 39.2-138.9 59.9-214.5 59.9h-39.6c-75.6 0-149.8-20.7-214.5-59.9l-16.7-10.1c0 52.7 15.2 104.2 43.8 148.4l4.4 6.8c-31.1 37.3-48.2 84.3-48.2 133 0 86.5 53.7 163.9 134.7 194.3 34.6 12.9 71.2 19.6 108.1 19.6h16.3c36.9 0 73.6-6.6 108.1-19.6 81-30.3 134.7-107.7 134.7-194.3 0-48.6-17.1-95.7-48.2-132.9l4.4-6.8c28.7-44.3 43.9-95.8 43.9-148.5z" fill="url(#XMLID_3_)"/><path id="XMLID_2968_" d="m256 240c-12.4 0-23.9 6.5-30.2 17.2l-8.4 14.1c-6.5 11-18.4 17.7-31.1 17.7-20 0-36.2 16.2-36.2 36.2v165.8c31.5 10.5 64.6 15.9 97.8 15.9h16.3c33.3 0 66.3-5.4 97.8-15.9v-165.8c0-20-16.2-36.2-36.2-36.2-12.8 0-24.6-6.7-31.1-17.7l-8.4-14.1c-6.4-10.7-17.9-17.2-30.3-17.2z" fill="url(#XMLID_4_)"/><g fill="#e36414"><path id="XMLID_2967_" d="m9.2 334.5c2.1 10.6 5.1 20.9 8.8 30.9 25.8-10.5 43.6-24.2 40.8-31.9-2.8-7.6-24.1-6.9-49.6 1z"/><path id="XMLID_2966_" d="m58.7 280.6c3.1-8.4-18.5-24-48.2-34.8-2.5 10.7-4.2 21.6-5 32.7 27.2 8.8 50.4 9.9 53.2 2.1z"/><path id="XMLID_2965_" d="m501.5 245.7c-29.7 10.8-51.3 26.4-48.2 34.8 2.9 7.8 26.1 6.7 53.2-2.2-.8-11-2.5-21.9-5-32.6z"/><path id="XMLID_2964_" d="m453.3 333.4c-2.8 7.7 15 21.4 40.8 31.9 3.7-10 6.7-20.3 8.8-30.9-25.6-7.8-46.9-8.5-49.6-1z"/><path id="XMLID_2962_" d="m172.7 80.6c10.8 29.7 26.4 51.2 34.8 48.2 8-2.9 6.7-27.1-2.8-54.9-12-.9-23.9-2.3-35.7-4.3 1.2 3.5 2.4 7.2 3.7 11z"/><path id="XMLID_2961_" d="m275.8 75h-39.6c-1.7 0-3.2 0-5.2 0 0 38.7 11.2 70 25 70s25-31.3 25-70c-1.7 0-3.5 0-5.2 0z"/><path id="XMLID_2960_" d="m307.2 73.8c-9.4 27.9-10.8 52-2.8 54.9 8.4 3.1 24-18.5 34.8-48.2 1.4-3.7 2.6-7.4 3.7-11-11.8 2-23.7 3.4-35.7 4.3z"/></g><path id="XMLID_2959_" d="m53.2 160.2c1.1-1.3 2.2-2.7 3.4-4 15.9-18.1 34.2-33.5 54.3-45.8-42.2-27.2-78.3-63.1-105.9-105.4 0 52.7 15.2 104.2 43.8 148.4z" fill="url(#XMLID_5_)"/><path id="XMLID_1589_" d="m458.8 160.2c-1.1-1.3-2.2-2.7-3.4-4-15.9-18.1-34.2-33.5-54.3-45.8 42.2-27.2 78.3-63.1 105.9-105.4 0 52.7-15.2 104.2-43.8 148.4z" fill="url(#XMLID_6_)"/><g id="XMLID_2883_"><path id="XMLID_2884_" d="m169.6 185h44.7v10h-44.7z" fill="#b24e10" transform="matrix(.894 .447 -.447 .894 105.241 -65.806)"/></g><g id="XMLID_2881_"><path id="XMLID_2882_" d="m315 167.6h10v44.7h-10z" fill="#b24e10" transform="matrix(.447 .894 -.894 .447 346.817 -181.188)"/></g><path id="XMLID_2880_" d="m217 299-76.6 49.2c-5.9-2.7-12.5-4.2-19.4-4.2-20.1 0-37.2 12.6-43.9 30.3-7.3-4.6-15.9-7.3-25.1-7.3-26 0-47 21-47 47 0 8.4 2.2 16.2 6 23-3.8 6.8-6 14.6-6 23 0 26 21 47 47 47 8.4 0 16.2-2.2 23-6 6.8 3.8 14.6 6 23 6 26 0 47-21 47-47 0-9.2-2.7-17.8-7.3-25.1 17.7-6.7 30.3-23.9 30.3-43.9 0-8.8-2.4-17-6.6-24z" fill="#d7d5c1"/><g id="XMLID_2878_"><path id="XMLID_2879_" d="m52 466c-18.8 0-36.1-10.2-45.4-26.5l8.7-4.9c7.5 13.2 21.5 21.4 36.7 21.4z" fill="#ebeae0"/></g><g id="XMLID_2876_"><path id="XMLID_2877_" d="m121 443v-10c5.2 0 10.2-.9 15-2.7l3.6 9.3c-6 2.3-12.2 3.4-18.6 3.4z" fill="#ebeae0"/></g><g id="XMLID_2874_"><path id="XMLID_2875_" d="m79 391h-10c0-6 1.1-12.6 3.4-18.5l9.3 3.6c-1.8 4.7-2.7 9.9-2.7 14.9z" fill="#ebeae0"/></g><path id="XMLID_2873_" d="m295 299 76.6 49.2c5.9-2.7 12.5-4.2 19.4-4.2 20.1 0 37.2 12.6 43.9 30.3 7.3-4.6 15.9-7.3 25.1-7.3 26 0 47 21 47 47 0 8.4-2.2 16.2-6 23 3.8 6.8 6 14.6 6 23 0 26-21 47-47 47-8.4 0-16.2-2.2-23-6-6.8 3.8-14.6 6-23 6-26 0-47-21-47-47 0-9.2 2.7-17.8 7.3-25.1-17.7-6.7-30.3-23.9-30.3-43.9 0-8.8 2.4-17 6.6-24z" fill="#d7d5c1"/><g id="XMLID_2871_"><path id="XMLID_2872_" d="m496.6 439.4c-1.9-3.3-4.2-6.4-6.9-9.1l7.1-7.1c3.4 3.4 6.3 7.2 8.6 11.3z" fill="#ebeae0"/></g><g id="XMLID_2869_"><path id="XMLID_2870_" d="m434.5 505.4c-4.1-2.3-7.9-5.2-11.3-8.6l7.1-7.1c2.7 2.7 5.8 5.1 9.1 6.9z" fill="#ebeae0"/></g><g id="XMLID_2866_"><path id="XMLID_2867_" d="m391 443c-6.4 0-12.6-1.1-18.5-3.4l3.6-9.3c4.8 1.8 9.8 2.7 15 2.7v10z" fill="#ebeae0"/></g><g id="XMLID_2864_"><path id="XMLID_2865_" d="m443 391h-10c0-5-.9-10.2-2.7-15l9.3-3.6c2.3 6 3.4 12.6 3.4 18.6z" fill="#ebeae0"/></g><g id="XMLID_2844_"><g id="XMLID_2853_"><path id="XMLID_2863_" d="m361 174.8h-10c0-8.3-6.7-15-15-15v-10c13.8 0 25 11.3 25 25z" fill="#b24e10"/></g><g id="XMLID_2851_"><path id="XMLID_2852_" d="m381 174.8h-10c0-13.8 11.2-25 25-25v10c-8.3 0-15 6.8-15 15z" fill="#b24e10"/></g><g id="XMLID_2847_"><path id="XMLID_2850_" d="m396 139.8c-13.8 0-25-11.2-25-25h10c0 8.3 6.7 15 15 15z" fill="#b24e10"/></g><g id="XMLID_2845_"><path id="XMLID_2846_" d="m336 139.8v-10c8.3 0 15-6.7 15-15h10c0 13.8-11.2 25-25 25z" fill="#b24e10"/></g></g><g id="XMLID_1644_"><path id="XMLID_1665_" d="m251 260h10v60h-10z" fill="#b24e10"/></g><g id="XMLID_1642_"><path id="XMLID_1643_" d="m103 303.4h10v41.2h-10z" fill="#b24e10" transform="matrix(.243 .97 -.97 .243 396.124 140.63)"/></g><g id="XMLID_1640_"><path id="XMLID_1641_" d="m87.4 289h41.2v10h-41.2z" fill="#b24e10" transform="matrix(.97 .243 -.243 .97 74.53 -17.416)"/></g><g id="XMLID_1638_"><path id="XMLID_1639_" d="m399 273.4h10v41.2h-10z" fill="#b24e10" transform="matrix(.243 .97 -.97 .243 591.216 -169.252)"/></g><g id="XMLID_1636_"><path id="XMLID_1637_" d="m383.4 319h41.2v10h-41.2z" fill="#b24e10" transform="matrix(.97 .243 -.243 .97 90.644 -88.311)"/></g><path id="XMLID_1635_" d="m261.9 240h-11.7c-7.8 0-14.1 6.3-14.1 14.1 0 3.8 1.5 7.3 4.1 10l15.8 15.9 15.9-15.9c2.7-2.7 4.1-6.2 4.1-10 0-7.8-6.3-14.1-14.1-14.1z" fill="#e36414"/><g id="XMLID_1633_"><path id="XMLID_1634_" d="m321 374-65-47.8-65 47.8-6-8 68-50c1.8-1.3 4.2-1.3 5.9 0l68 50z" fill="#b24e10"/></g><g id="XMLID_1596_"><path id="XMLID_1625_" d="m320 265c-13.8 0-25-11.2-25-25v-20h10v20c0 8.3 6.7 15 15 15s15-6.7 15-15v-20h10v20c0 13.8-11.2 25-25 25z" fill="#b24e10"/></g><g id="XMLID_1594_"><path id="XMLID_1595_" d="m192 265c-13.8 0-25-11.2-25-25v-20h10v20c0 8.3 6.7 15 15 15s15-6.7 15-15v-20h10v20c0 13.8-11.2 25-25 25z" fill="#b24e10"/></g></g><g id="XMLID_4256_"><g id="XMLID_523_"><path id="XMLID_4022_" d="m256 150c-19.5 0-30-38.6-30-74.9 0-2.7 2.2-4.9 4.9-5 1.8 0 3.5-.1 5.3-.1h39.6c1.8 0 3.5 0 5.3.1 2.7.1 4.9 2.3 4.9 5 0 36.3-10.5 74.9-30 74.9zm-19.9-70c.9 37 12.1 60 19.9 60s19-23 19.9-60h-.1-39.6c-.1 0-.1 0-.1 0z" fill="#4d2419"/></g><g id="XMLID_720_"><path id="XMLID_4021_" d="m251 280h10v40h-10z" fill="#4d2419"/></g><g id="XMLID_721_"><path id="XMLID_4020_" d="m321 374-65-47.8-65 47.8-6-8 68-50c1.8-1.3 4.2-1.3 5.9 0l68 50z" fill="#4d2419"/></g><g id="XMLID_718_"><path id="XMLID_4017_" d="m256 285c-1.3 0-2.6-.5-3.5-1.5l-15.9-15.9c-3.6-3.6-5.6-8.4-5.6-13.5 0-10.6 8.6-19.1 19.1-19.1h11.7c10.6 0 19.1 8.6 19.1 19.1 0 5.1-2 9.9-5.6 13.5l-15.9 15.9c-.8 1-2.1 1.5-3.4 1.5zm-5.9-40c-5 0-9.1 4.1-9.1 9.1 0 2.4 1 4.7 2.7 6.5l12.3 12.3 12.3-12.3c1.7-1.7 2.7-4 2.7-6.5 0-5-4.1-9.1-9.1-9.1z" fill="#4d2419"/></g><g id="XMLID_717_"><path id="XMLID_4016_" d="m320 265c-13.8 0-25-11.2-25-25v-20h10v20c0 8.3 6.7 15 15 15s15-6.7 15-15v-20h10v20c0 13.8-11.2 25-25 25z" fill="#4d2419"/></g><g id="XMLID_715_"><path id="XMLID_4015_" d="m192 265c-13.8 0-25-11.2-25-25v-20h10v20c0 8.3 6.7 15 15 15s15-6.7 15-15v-20h10v20c0 13.8-11.2 25-25 25z" fill="#4d2419"/></g><g id="XMLID_722_"><path id="XMLID_4014_" d="m169.6 185h44.7v10h-44.7z" fill="#4d2419" transform="matrix(.894 .447 -.447 .894 105.241 -65.806)"/></g><g id="XMLID_724_"><path id="XMLID_4013_" d="m315 167.6h10v44.7h-10z" fill="#4d2419" transform="matrix(.447 .894 -.894 .447 346.817 -181.188)"/></g><g id="XMLID_779_"><path id="XMLID_4012_" d="m52 466c-28.7 0-52-23.3-52-52s23.3-52 52-52v10c-23.2 0-42 18.8-42 42s18.8 42 42 42z" fill="#4d2419"/></g><g id="XMLID_782_"><path id="XMLID_4011_" d="m121 443v-10c23.2 0 42-19 42-42h10c0 29-23.3 52-52 52z" fill="#4d2419"/></g><g id="XMLID_780_"><path id="XMLID_4010_" d="m79 391h-10c0-29 23.3-52 52-52v10c-23.2 0-42 19-42 42z" fill="#4d2419"/></g><g id="XMLID_789_"><path id="XMLID_4007_" d="m98 512c-8 0-15.9-1.8-23-5.4-7.1 3.5-15 5.4-23 5.4-28.7 0-52-23.3-52-52 0-8 1.8-15.9 5.4-23-3.6-7.1-5.4-15-5.4-23 0-28.7 23.3-52 52-52 7.9 0 15.7 1.8 22.8 5.2 8.8-17.1 26.8-28.2 46.3-28.2 6.5 0 12.8 1.2 18.9 3.5l74.4-47.8c2.1-1.3 4.8-1 6.4.9 1.6 1.8 1.7 4.6.1 6.5l-53.5 65.4c3.7 7.3 5.6 15.3 5.6 23.5 0 19.5-11.1 37.4-28.2 46.3 3.4 7.1 5.2 14.8 5.2 22.7 0 28.7-23.3 52-52 52zm-23-16c.8 0 1.7.2 2.5.6 6.3 3.5 13.4 5.4 20.5 5.4 23.2 0 42-18.8 42-42 0-8-2.2-15.7-6.5-22.4-.8-1.3-1-2.8-.5-4.3s1.6-2.6 3-3.1c16.2-6.2 27-21.9 27-39.2 0-7.6-2-15-5.9-21.5-1.1-1.8-.9-4.1.4-5.7l35.7-43.6-50.1 32.2c-1.4.9-3.2 1-4.8.3-5.5-2.5-11.3-3.7-17.3-3.7-17.3 0-33.1 10.9-39.2 27-.5 1.4-1.7 2.5-3.1 3s-3 .3-4.3-.5c-6.7-4.3-14.4-6.5-22.4-6.5-23.2 0-42 18.8-42 42 0 7.2 1.9 14.3 5.4 20.5.9 1.5.9 3.4 0 4.9-3.5 6.3-5.4 13.4-5.4 20.5 0 23.2 18.8 42 42 42 7.2 0 14.3-1.9 20.5-5.4.8-.3 1.7-.5 2.5-.5z" fill="#4d2419"/></g><g id="XMLID_787_"><path id="XMLID_4006_" d="m460 512c-13.3 0-26.6-5.1-36.8-15.2l7.1-7.1c16.4 16.4 43 16.4 59.4 0s16.4-43 0-59.4l7.1-7.1c20.3 20.3 20.3 53.3 0 73.5-10.2 10.2-23.5 15.3-36.8 15.3z" fill="#4d2419"/></g><g id="XMLID_785_"><path id="XMLID_4005_" d="m391 443c-28.7 0-52-23-52-52h10c0 23 18.8 42 42 42z" fill="#4d2419"/></g><g id="XMLID_784_"><path id="XMLID_4004_" d="m443 391h-10c0-23-18.8-42-42-42v-10c28.7 0 52 23 52 52z" fill="#4d2419"/></g><g id="XMLID_781_"><path id="XMLID_4001_" d="m460 512c-8 0-15.9-1.8-23-5.4-7.1 3.5-15 5.4-23 5.4-28.7 0-52-23.3-52-52 0-7.9 1.8-15.7 5.2-22.7-17.1-8.8-28.2-26.8-28.2-46.3 0-8.2 1.9-16.2 5.6-23.5l-53.5-65.4c-1.6-1.9-1.5-4.7.1-6.5s4.4-2.2 6.4-.9l74.4 47.8c6-2.4 12.4-3.5 18.9-3.5 19.5 0 37.4 11.1 46.3 28.2 7.1-3.4 14.8-5.2 22.8-5.2 28.7 0 52 23.3 52 52 0 8-1.8 15.9-5.4 23 3.5 7.1 5.4 15 5.4 23 0 28.7-23.3 52-52 52zm-23-16c.8 0 1.7.2 2.5.6 6.3 3.5 13.4 5.4 20.5 5.4 23.2 0 42-18.8 42-42 0-7.2-1.9-14.3-5.4-20.5-.9-1.5-.9-3.4 0-4.9 3.5-6.3 5.4-13.4 5.4-20.5 0-23.2-18.8-42-42-42-8 0-15.7 2.2-22.4 6.5-1.3.8-2.8 1-4.3.5-1.4-.5-2.6-1.6-3.1-3-6.2-16.2-21.9-27-39.2-27-6 0-11.8 1.3-17.3 3.7-1.5.7-3.3.6-4.8-.3l-50.1-32.2 35.7 43.6c1.3 1.6 1.5 3.9.4 5.7-3.9 6.4-5.9 13.8-5.9 21.4 0 17.3 10.9 33.1 27 39.2 1.4.5 2.5 1.7 3 3.1s.3 3-.5 4.3c-4.2 6.7-6.5 14.5-6.5 22.4 0 23.2 18.8 42 42 42 7.2 0 14.3-1.9 20.5-5.4.8-.4 1.7-.6 2.5-.6z" fill="#4d2419"/></g><g id="XMLID_790_"><g id="XMLID_791_"><path id="XMLID_4000_" d="m361 174.8h-10c0-8.3-6.7-15-15-15v-10c13.8 0 25 11.3 25 25z" fill="#4d2419"/></g><g id="XMLID_788_"><path id="XMLID_3999_" d="m381 174.8h-10c0-13.8 11.2-25 25-25v10c-8.3 0-15 6.8-15 15z" fill="#4d2419"/></g><g id="XMLID_786_"><path id="XMLID_3998_" d="m396 139.8c-13.8 0-25-11.2-25-25h10c0 8.3 6.7 15 15 15z" fill="#4d2419"/></g><g id="XMLID_783_"><path id="XMLID_3997_" d="m336 139.8v-10c8.3 0 15-6.7 15-15h10c0 13.8-11.2 25-25 25z" fill="#4d2419"/></g></g><g id="XMLID_1458_"><path id="XMLID_3378_" d="m103 303.4h10v41.2h-10z" fill="#4d2419" transform="matrix(.243 .97 -.97 .243 396.124 140.63)"/></g><g id="XMLID_1456_"><path id="XMLID_3377_" d="m87.4 289h41.2v10h-41.2z" fill="#4d2419" transform="matrix(.97 .243 -.243 .97 74.53 -17.416)"/></g><g id="XMLID_1455_"><path id="XMLID_3376_" d="m399 273.4h10v41.2h-10z" fill="#4d2419" transform="matrix(.243 .97 -.97 .243 591.216 -169.252)"/></g><g id="XMLID_1454_"><path id="XMLID_3375_" d="m383.4 319h41.2v10h-41.2z" fill="#4d2419" transform="matrix(.97 .243 -.243 .97 90.644 -88.311)"/></g><g id="XMLID_3459_"><path id="XMLID_3347_" d="m18.2 379.2c-12.1-27.2-18.2-56.2-18.2-86 0-48.4 16.7-95.6 47-133.3l-2.4-3.7c-29.2-45.2-44.6-97.5-44.6-151.2 0-1.8 1-3.5 2.5-4.4 1.6-.9 3.5-.9 5 .1l16.7 10.1c64 38.7 137.3 59.2 212 59.2h39.6c74.7 0 148-20.5 211.9-59.2l16.7-10.1c1.5-.9 3.5-1 5-.1 1.6.9 2.6 2.6 2.6 4.4 0 53.7-15.4 106-44.6 151.1l-2.4 3.7c30.4 37.7 47 84.9 47 133.3 0 29.9-6.1 58.8-18.2 86l-9.1-4.1c11.5-26 17.3-53.5 17.3-82 0-47.3-16.7-93.4-47-129.7-1.4-1.7-1.5-4.1-.4-5.9l4.4-6.8c26.5-41 41.2-88.1 42.9-136.7l-9 5.4c-65.5 39.7-140.6 60.7-217.1 60.7h-39.6c-76.5 0-151.6-21-217.1-60.6l-9-5.4c1.6 48.6 16.3 95.7 42.9 136.7l4.4 6.8c1.2 1.8 1 4.2-.4 5.9-30.3 36.3-47 82.4-47 129.7 0 28.5 5.8 56 17.3 82z" fill="#4d2419"/></g><g id="XMLID_677_"><path id="XMLID_3346_" d="m264.2 512h-16.3c-37.7 0-74.6-6.7-109.9-19.9-1-.4-1.9-.7-2.8-1.1l3.6-9.3c.9.4 1.8.7 2.7 1 34.1 12.8 69.9 19.3 106.4 19.3h16.3c36.5 0 72.2-6.5 106.4-19.3.9-.3 1.8-.7 2.7-1l3.6 9.3c-.9.4-1.9.7-2.8 1.1-35.3 13.2-72.3 19.9-109.9 19.9z" fill="#4d2419"/></g><g id="XMLID_648_"><path id="XMLID_3343_" d="m53.2 165.2c-.1 0-.2 0-.3 0-1.6-.1-3-.9-3.9-2.3l-4.4-6.8c-29.2-45.1-44.6-97.4-44.6-151.1 0-2.2 1.5-4.2 3.6-4.8 2.1-.6 4.4.2 5.6 2.1 27.3 41.9 62.4 76.9 104.4 104 1.4.9 2.3 2.5 2.3 4.3 0 1.7-.9 3.3-2.4 4.2-19.9 12.2-37.8 27.3-53.2 44.9-1.1 1.3-2.2 2.6-3.3 3.9-.9 1-2.3 1.6-3.8 1.6zm-42.7-143.3c2.9 45.8 17.4 90 42.5 128.8l.8 1.2c14.1-15.9 30.2-29.8 48-41.5-35.7-24.1-66.3-53.8-91.3-88.5z" fill="#4d2419"/></g><g id="XMLID_676_"><path id="XMLID_3340_" d="m458.8 165.2c-1.5 0-2.9-.7-3.8-1.8-1.2-1.4-2.3-2.7-3.3-3.9-15.4-17.5-33.3-32.6-53.2-44.9-1.5-.9-2.4-2.5-2.4-4.2s.8-3.3 2.3-4.3c42-27.1 77.1-62.1 104.4-104 1.2-1.9 3.5-2.7 5.6-2.1s3.6 2.6 3.6 4.8c0 53.7-15.4 106-44.6 151.1l-4.4 6.8c-.9 1.3-2.3 2.2-3.9 2.3-.1.2-.2.2-.3.2zm-48.5-54.8c17.7 11.7 33.8 25.6 48 41.5l.8-1.2c25.1-38.8 39.6-83 42.5-128.8-25.1 34.7-55.7 64.4-91.3 88.5z" fill="#4d2419"/></g><g id="XMLID_1646_"><path id="XMLID_3339_" d="m205.8 134c-5.7 0-12-4.8-18.8-14.2-6.8-9.5-13.6-22.8-18.9-37.6-1.4-3.7-2.6-7.5-3.7-11.2l9.6-2.9c1.1 3.5 2.2 7.1 3.5 10.7 11.7 32.3 25.3 45.6 28.5 45.2 2.4-1.6 4.4-18.4-5.8-48.6l9.5-3.2c8.5 25.1 13.5 56.2-.3 61.2-1.3.4-2.4.6-3.6.6z" fill="#4d2419"/></g><g id="XMLID_1645_"><path id="XMLID_3338_" d="m306.2 134c-1.2 0-2.3-.2-3.5-.6-13.8-5-8.8-36.1-.3-61.2l9.5 3.2c-10.2 30.2-8.2 47-5.7 48.6h.1c3.3 0 16.7-13.4 28.2-45.2 1.3-3.5 2.5-7 3.5-10.5l9.6 2.9c-1.1 3.7-2.3 7.4-3.7 11.1-5.4 14.8-12.1 28.1-18.9 37.6-6.8 9.4-13.1 14.1-18.8 14.1z" fill="#4d2419"/></g></g></g></svg>