<svg id="Layer_1" enable-background="new 0 0 512 512" height="512" viewBox="0 0 512 512" width="512" xmlns="http://www.w3.org/2000/svg" xmlns:xlink="http://www.w3.org/1999/xlink"><linearGradient id="lg1"><stop offset=".7366" stop-color="#ffc970"/><stop offset="1" stop-color="#ffb233"/></linearGradient><linearGradient id="XMLID_3_" gradientTransform="matrix(-1 0 0 1 -2088 0)" gradientUnits="userSpaceOnUse" x1="-2526.114" x2="-2492.868" xlink:href="#lg1" y1="56.111" y2="104.135"/><linearGradient id="lg2"><stop offset=".7996" stop-color="#ebeae0"/><stop offset="1" stop-color="#d7d5c1"/></linearGradient><radialGradient id="XMLID_4_" cx="-2566.309" cy="86.667" gradientTransform="matrix(-1 0 0 1 -2088 0)" gradientUnits="userSpaceOnUse" r="73.34" xlink:href="#lg2"/><linearGradient id="XMLID_5_" gradientUnits="userSpaceOnUse" x1="75.195" x2="108.44" xlink:href="#lg1" y1="56.111" y2="104.135"/><radialGradient id="XMLID_6_" cx="35" cy="86.667" gradientUnits="userSpaceOnUse" r="73.34" xlink:href="#lg2"/><radialGradient id="XMLID_7_" cx="256.654" cy="291" gradientUnits="userSpaceOnUse" r="234.155" xlink:href="#lg1"/><radialGradient id="XMLID_8_" cx="-2344.655" cy="291" gradientTransform="matrix(-1 0 0 1 -2088 0)" gradientUnits="userSpaceOnUse" r="234.155" xlink:href="#lg1"/><linearGradient id="XMLID_9_" gradientUnits="userSpaceOnUse" x1="256.654" x2="256.654" y1="318.5" y2="497.101"><stop offset=".4835" stop-color="#ebeae0"/><stop offset="1" stop-color="#d7d5c1"/></linearGradient><radialGradient id="XMLID_10_" cx="228.268" cy="41.917" gradientUnits="userSpaceOnUse" r="66.486"><stop offset=".6739" stop-color="#2a539d"/><stop offset="1" stop-color="#1f3e75"/></radialGradient><linearGradient id="XMLID_11_" gradientUnits="userSpaceOnUse" x1="330.654" x2="370.134" y1="333" y2="333"><stop offset=".1071" stop-color="#db3429"/><stop offset="1" stop-color="#b3271e"/></linearGradient><g id="XMLID_1_"><g id="XMLID_5198_"><path id="XMLID_3644_" d="m299.7 163h158c30.5-47.2 31.1-107.8 1.5-155.6l-1.5-2.4h-1.5c-63.4 0-119.5 41.1-138.7 101.6z" fill="url(#XMLID_3_)"/><path id="XMLID_3643_" d="m299.7 163h158c30.5-47.2 31.1-107.8 1.5-155.6l-1.5-2.4z" fill="url(#XMLID_4_)"/><path id="XMLID_3642_" d="m213.7 163h-158c-30.6-47.2-31.2-107.8-1.5-155.6l1.5-2.4h1.5c63.4 0 119.5 41.1 138.7 101.6z" fill="url(#XMLID_5_)"/><path id="XMLID_3641_" d="m213.7 163h-158c-30.6-47.2-31.2-107.8-1.5-155.6l1.5-2.4z" fill="url(#XMLID_6_)"/><path id="XMLID_3618_" d="m373 487.4c-34.6 12.9-71.2 19.6-108.1 19.6h-16.3c-36.9 0-73.6-6.6-108.1-19.6-81.2-30.3-134.8-107.7-134.8-194.2 0-50.4 18.3-99 51.6-136.9 45.3-51.7 110.8-81.3 179.5-81.3h39.6c68.8 0 134.2 29.6 179.6 81.3 33.3 37.9 51.6 86.5 51.6 136.9.1 86.5-53.6 163.9-134.6 194.2z" fill="url(#XMLID_7_)"/><path id="XMLID_3617_" d="m140.4 487.4c34.6 12.9 71.2 19.6 108.1 19.6h16.3c36.9 0 73.6-6.6 108.1-19.6 81-30.3 134.7-107.7 134.7-194.3 0-50.4-18.3-99-51.6-136.9-45.3-51.6-110.8-81.2-179.5-81.2h-39.6c-68.8 0-134.2 29.6-179.6 81.3-33.3 37.8-51.6 86.5-51.6 136.9 0 86.5 53.6 163.9 134.7 194.2z" fill="url(#XMLID_8_)"/><path id="XMLID_3616_" d="m256.7 240c-12.4 0-23.9 6.5-30.2 17.2l-8.4 14.1c-6.5 11-18.4 17.7-31.1 17.7-20 0-36.2 16.2-36.2 36.2v165.8c31.5 10.5 64.6 15.9 97.8 15.9h16.3c33.3 0 66.3-5.4 97.8-15.9v-165.8c0-20-16.2-36.2-36.2-36.2-12.8 0-24.6-6.7-31.1-17.7l-8.4-14.1c-6.5-10.7-17.9-17.2-30.3-17.2z" fill="url(#XMLID_9_)"/><path id="XMLID_3640_" d="m231.7 75.1c0 38.6 11.2 69.9 25 69.9s25-31.3 25-69.9c-1.7 0-3.5-.1-5.2-.1h-39.6c-1.8 0-3.5 0-5.2.1z" fill="#e36414"/><path id="XMLID_3639_" d="m208.2 128.7c7.7-2.8 6.8-25.3-1.7-51.8-10.9 1.4-21.6 3.5-32.1 6.4 10.8 28.2 25.6 48.4 33.8 45.4z" fill="#e36414"/><path id="XMLID_3638_" d="m306.8 77c-8.5 26.5-9.4 49-1.7 51.8 8.2 3 23.1-17.2 33.8-45.4-10.5-2.9-21.2-5.1-32.1-6.4z" fill="#e36414"/><g id="XMLID_3636_"><path id="XMLID_3637_" d="m252 260h10v60h-10z" fill="#b24e10"/></g><g id="XMLID_3634_"><path id="XMLID_3635_" d="m103.7 303.4h10v41.2h-10z" fill="#b24e10" transform="matrix(.243 .97 -.97 .243 396.619 139.995)"/></g><g id="XMLID_3632_"><path id="XMLID_3633_" d="m88 289h41.2v10h-41.2z" fill="#b24e10" transform="matrix(.97 .243 -.243 .97 74.55 -17.575)"/></g><g id="XMLID_3630_"><path id="XMLID_3631_" d="m399.7 273.4h10v41.2h-10z" fill="#b24e10" transform="matrix(.243 .97 -.97 .243 591.711 -169.887)"/></g><g id="XMLID_3628_"><path id="XMLID_3629_" d="m384 319h41.2v10h-41.2z" fill="#b24e10" transform="matrix(.97 .243 -.243 .97 90.664 -88.469)"/></g><path id="XMLID_3627_" d="m262.5 240h-11.7c-7.8 0-14.1 6.3-14.1 14.1 0 3.8 1.5 7.3 4.1 10l15.9 15.9 15.9-15.9c2.7-2.7 4.1-6.2 4.1-10 0-7.8-6.4-14.1-14.2-14.1z" fill="#e36414"/><g id="XMLID_3625_"><path id="XMLID_3626_" d="m217.7 260h-10v-20c0-8.3-6.7-15-15-15s-15 6.7-15 15v20h-10v-20c0-13.8 11.2-25 25-25s25 11.2 25 25z" fill="#b24e10"/></g><g id="XMLID_3623_"><path id="XMLID_3624_" d="m345.7 260h-10v-20c0-8.3-6.7-15-15-15s-15 6.7-15 15v20h-10v-20c0-13.8 11.2-25 25-25s25 11.2 25 25z" fill="#b24e10"/></g><g fill="#e36414"><path id="XMLID_3622_" d="m9.8 334.5c2.1 10.6 5.1 20.9 8.8 30.9 25.8-10.5 43.6-24.2 40.8-31.9-2.7-7.6-24-6.9-49.6 1z"/><path id="XMLID_3621_" d="m59.4 280.6c3.1-8.4-18.5-24-48.2-34.8-2.5 10.7-4.2 21.6-5 32.7 27.1 8.8 50.3 9.9 53.2 2.1z"/><path id="XMLID_3620_" d="m502.1 245.7c-29.7 10.8-51.3 26.4-48.2 34.8 2.9 7.8 26.1 6.7 53.2-2.2-.8-11-2.4-21.9-5-32.6z"/><path id="XMLID_3619_" d="m453.9 333.4c-2.8 7.7 15 21.4 40.8 31.9 3.7-10 6.7-20.3 8.8-30.9-25.6-7.8-46.8-8.5-49.6-1z"/></g><path id="XMLID_2250_" d="m281.7 75-100-70-25 116.7c-2.6 12 6.6 23.3 18.8 23.3 46.2 0 88-27.5 106.2-70z" fill="url(#XMLID_10_)"/><path id="XMLID_2248_" d="m221.7 33-46.2.8-2.2 10 62.3-1z" fill="#e25d55"/><path id="XMLID_2247_" d="m248.6 51.9-86.6 44.8-2.7 12.6 98.6-50.9z" fill="#e25d55"/><path id="XMLID_2246_" d="m232.7 320h214v26h-214z" fill="#1f3e75"/><path id="XMLID_2243_" d="m446.7 346h-113c-7.2 0-13-5.8-13-13 0-7.2 5.8-13 13-13h113z" fill="url(#XMLID_11_)"/><path id="XMLID_2216_" d="m487.2 220h-100c-11 0-20 28.2-20 63s9 63 20 63h100c11 0 20-28.2 20-63s-9-63-20-63z" fill="#e25d55"/><ellipse id="XMLID_2215_" cx="387.2" cy="283" fill="#db3429" rx="20" ry="63"/><g id="XMLID_2213_"><path id="XMLID_2214_" d="m383 260h10v46h-10z" fill="#b3271e"/></g><path id="XMLID_2211_" d="m60.3 69h-28c0 17.9-7.1 35.1-19.8 47.8l-8.2 8.2h28l8.2-8.2c12.7-12.7 19.8-29.9 19.8-47.8z" fill="#e25d55"/><path id="XMLID_2149_" d="m423.2 409h-28c0 17.9-7.1 35.1-19.8 47.8l-8.2 8.2h28l8.2-8.2c12.6-12.7 19.8-29.9 19.8-47.8z" fill="#db3429"/><path id="XMLID_2148_" d="m4.3 220h28c0 17.9 7.1 35.1 19.8 47.8l8.2 8.2h-28l-8.2-8.2c-12.6-12.7-19.8-29.9-19.8-47.8z" fill="#2a539d"/><path id="XMLID_2134_" d="m351.7 125h28c0 17.9 7.1 35.1 19.8 47.8l8.2 8.2h-28l-8.2-8.2c-12.7-12.7-19.8-29.9-19.8-47.8z" fill="#2a539d"/><path id="XMLID_1761_" d="m208.7 381c26.5 0 48-21.5 48-48s-21.5-48-48-48" fill="#ebeae0"/><path id="XMLID_1760_" d="m209 386v-10c23 0 43-19.3 43-43s-20-43-43-43v-10c29 0 53 23.8 53 53s-24 53-53 53z" fill="#b24e10"/></g><g id="XMLID_4537_"><g id="XMLID_397_"><path id="XMLID_4064_" d="m252 280h10v53h-10z" fill="#4d2419"/></g><g id="XMLID_394_"><path id="XMLID_4063_" d="m306.8 134c-1.1 0-2.3-.2-3.4-.6-17-6.2-4.1-49.4-1.3-58l9.5 3c-9.2 28.7-7.1 44-4.7 45.6h.1c3.2 0 15.7-12.2 27.2-42.5l9.3 3.6c-7.2 19-22.5 48.9-36.7 48.9z" fill="#4d2419"/></g><g id="XMLID_392_"><path id="XMLID_4062_" d="m103.7 303.4h10v41.2h-10z" fill="#4d2419" transform="matrix(.243 .97 -.97 .243 396.619 139.995)"/></g><g id="XMLID_391_"><path id="XMLID_4061_" d="m88 289h41.2v10h-41.2z" fill="#4d2419" transform="matrix(.97 .243 -.243 .97 74.55 -17.575)"/></g><g id="XMLID_356_"><path id="XMLID_4058_" d="m256.7 285c-1.3 0-2.6-.5-3.5-1.5l-15.9-15.9c-3.6-3.6-5.6-8.4-5.6-13.5 0-10.6 8.6-19.1 19.1-19.1h11.7c10.6 0 19.1 8.6 19.1 19.1 0 5.1-2 9.9-5.6 13.5l-15.9 15.9c-.9 1-2.2 1.5-3.4 1.5zm-5.9-40c-5 0-9.1 4.1-9.1 9.1 0 2.4 1 4.7 2.7 6.5l12.3 12.3 12.3-12.3c1.7-1.7 2.7-4 2.7-6.5 0-5-4.1-9.1-9.1-9.1z" fill="#4d2419"/></g><g id="XMLID_87_"><path id="XMLID_4057_" d="m37.3 44.3h125.4v10h-125.4z" fill="#4d2419" transform="matrix(.707 .707 -.707 .707 64.157 -56.247)"/></g><g id="XMLID_24_"><path id="XMLID_4056_" d="m37.3 44.3h125.4v10h-125.4z" fill="#4d2419" transform="matrix(.707 .707 -.707 .707 64.157 -56.247)"/></g><g id="XMLID_23_"><path id="XMLID_4055_" d="m461.9 165.7-8.4-5.4c.6-.9 1.1-1.8 1.7-2.7 28-45.5 27.9-102.1-.3-147.5-50.9.5-97.6 28.4-122 73.1l-8.8-4.8c26.4-48.4 77-78.4 132.1-78.4h1.5c1.7 0 3.3.9 4.3 2.4l1.5 2.4c14.7 23.8 22.5 51.1 22.6 79 0 27.9-7.7 55.2-22.3 79-.7 1-1.3 2-1.9 2.9z" fill="#4d2419"/></g><g id="XMLID_22_"><path id="XMLID_4054_" d="m408.3-13.4h10v125.4h-10z" fill="#4d2419" transform="matrix(.707 .707 -.707 .707 155.938 -277.826)"/></g><g id="XMLID_19_"><path id="XMLID_4053_" d="m217.7 260h-10v-20c0-8.3-6.7-15-15-15s-15 6.7-15 15v20h-10v-20c0-13.8 11.2-25 25-25s25 11.2 25 25z" fill="#4d2419"/></g><g id="XMLID_20_"><path id="XMLID_4052_" d="m345.7 260h-10v-20c0-8.3-6.7-15-15-15s-15 6.7-15 15v20h-10v-20c0-13.8 11.2-25 25-25s25 11.2 25 25z" fill="#4d2419"/></g><g id="XMLID_1357_"><path id="XMLID_4049_" d="m175.5 150c-7.4 0-14.2-3.3-18.9-9s-6.4-13.1-4.9-20.3l25.1-116.7c.4-1.6 1.5-3 3.1-3.6s3.3-.4 4.7.6l100 70c1.9 1.4 2.7 3.9 1.7 6.1-19.1 44.2-62.5 72.9-110.8 72.9zm9.5-136.6-23.4 109.3c-.9 4.2.1 8.6 2.9 12 2.7 3.4 6.8 5.3 11.1 5.3 42.9 0 81.7-24.7 99.9-63.3z" fill="#4d2419"/></g><g id="XMLID_1382_"><path id="XMLID_4048_" d="m196.5 11.2h10v54.3h-10z" fill="#4d2419" transform="matrix(.017 1 -1 .017 236.547 -163.788)"/></g><g id="XMLID_1383_"><path id="XMLID_4047_" d="m202 26.9h10v104.2h-10z" fill="#4d2419" transform="matrix(.459 .889 -.889 .459 182.208 -141.105)"/></g><g id="XMLID_1421_"><path id="XMLID_4046_" d="m209 386v-10c23 0 43-19.3 43-43s-20-43-43-43v-10c29 0 53 23.8 53 53s-24 53-53 53z" fill="#4d2419"/></g><g id="XMLID_404_"><path id="XMLID_4044_" d="m333.7 351c-9.9 0-18-8.1-18-18s8.1-18 18-18v10c-4.4 0-8 3.6-8 8s3.6 8 8 8z" fill="#4d2419"/></g><g id="XMLID_389_"><path id="XMLID_4041_" d="m387.2 351c-16.4 0-25-34.2-25-68s8.6-68 25-68 25 34.2 25 68-8.6 68-25 68zm0-126c-1.9 0-5.9 4-9.4 15-3.6 11.4-5.6 26.7-5.6 43s2 31.6 5.6 43c3.5 11 7.5 15 9.4 15s5.9-4 9.4-15c3.6-11.4 5.6-26.7 5.6-43s-2-31.6-5.6-43c-3.5-11-7.6-15-9.4-15z" fill="#4d2419"/></g><g id="XMLID_407_"><path id="XMLID_4038_" d="m487.2 351h-100c-16.4 0-25-34.2-25-68s8.6-68 25-68h100c16.4 0 25 34.2 25 68s-8.6 68-25 68zm-100-126c-1.9 0-5.9 4-9.4 15-3.6 11.4-5.6 26.7-5.6 43s2 31.6 5.6 43c3.5 11 7.5 15 9.4 15h100c1.9 0 5.9-4 9.4-15 3.6-11.4 5.6-26.7 5.6-43s-2-31.6-5.6-43c-3.5-11-7.5-15-9.4-15z" fill="#4d2419"/></g><g id="XMLID_390_"><path id="XMLID_4037_" d="m383 260h10v46h-10z" fill="#4d2419"/></g><g id="XMLID_405_"><path id="XMLID_4034_" d="m32.3 130h-28c-2 0-3.8-1.2-4.6-3.1s-.3-4 1.1-5.4l8.2-8.2c11.8-11.9 18.3-27.6 18.3-44.3 0-2.8 2.2-5 5-5h28c2.8 0 5 2.2 5 5 0 19.4-7.6 37.6-21.3 51.3l-8.2 8.2c-.9 1-2.1 1.5-3.5 1.5zm-15.9-10h13.9l6.7-6.7c10.6-10.7 17-24.5 18.2-39.3h-18c-1.2 17.4-8.5 33.5-20.8 46z" fill="#4d2419"/></g><g id="XMLID_410_"><path id="XMLID_4031_" d="m395.2 470h-28c-2 0-3.8-1.2-4.6-3.1s-.3-4 1.1-5.4l8.2-8.2c11.8-11.8 18.3-27.5 18.3-44.3 0-2.8 2.2-5 5-5h28c2.8 0 5 2.2 5 5 0 19.4-7.6 37.6-21.3 51.3l-8.2 8.2c-.9 1-2.2 1.5-3.5 1.5zm-16-10h13.9l6.7-6.7c10.6-10.6 17-24.4 18.1-39.3h-18c-1.1 17.4-8.3 33.5-20.7 46z" fill="#4d2419"/></g><g id="XMLID_408_"><path id="XMLID_4028_" d="m60.3 281h-28c-1.3 0-2.6-.5-3.5-1.5l-8.2-8.2c-13.7-13.7-21.3-31.9-21.3-51.3 0-2.8 2.2-5 5-5h28c2.8 0 5 2.2 5 5 0 16.7 6.5 32.4 18.3 44.3l8.2 8.2c1.4 1.4 1.9 3.6 1.1 5.4-.7 1.9-2.5 3.1-4.6 3.1zm-25.9-10h13.9c-12.3-12.5-19.6-28.6-20.8-46h-18c1.2 14.8 7.5 28.6 18.1 39.3z" fill="#4d2419"/></g><g id="XMLID_409_"><path id="XMLID_4025_" d="m407.7 186h-28c-1.3 0-2.6-.5-3.5-1.5l-8.2-8.2c-13.7-13.7-21.3-31.9-21.3-51.3 0-2.8 2.2-5 5-5h28c2.8 0 5 2.2 5 5 0 16.7 6.5 32.4 18.3 44.3l8.2 8.2c1.4 1.4 1.9 3.6 1.1 5.4-.8 1.9-2.6 3.1-4.6 3.1zm-26-10h13.9c-12.3-12.5-19.6-28.6-20.8-46h-18c1.2 14.8 7.5 28.6 18.1 39.3z" fill="#4d2419"/></g><g id="XMLID_1584_"><path id="XMLID_623_" d="m38.1 69.5-9.9-1c2.3-22.5 9.8-44.5 21.7-63.7l1.5-2.4c.9-1.5 2.5-2.4 4.3-2.4h1.5c45.6 0 88.2 20.3 116.9 55.7l-7.8 6.3c-26.5-32.7-65.8-51.6-107.8-52-11.2 18-18.2 38.5-20.4 59.5z" fill="#4d2419"/></g><g id="XMLID_393_"><path id="XMLID_622_" d="m51.5 165.7c-.6-1-1.2-1.9-1.8-2.9-7.9-12.8-13.8-26.7-17.5-41.2l9.7-2.5c3.5 13.6 9 26.5 16.3 38.4.6.9 1.1 1.8 1.7 2.7z" fill="#4d2419"/></g><g id="XMLID_92_"><path id="XMLID_620_" d="m256.7 150c-6.1 0-14.9-3.9-21.9-22.5l9.4-3.5c4.4 11.8 9.4 16.1 12.6 16.1 8.2 0 20-25.3 20-65h10c-.1 36.3-10.7 74.9-30.1 74.9z" fill="#4d2419"/></g><g id="XMLID_1583_"><path id="XMLID_615_" d="m411.8 123.1c-38.3-27.1-83.3-42-130.2-43l.2-10c48.9 1.1 95.9 16.6 135.8 44.9z" fill="#4d2419"/></g><g id="XMLID_21_"><path id="XMLID_595_" d="m101.5 123.1-5.8-8.2c20.4-14.5 42.9-25.7 66.7-33.3l3 9.5c-22.7 7.3-44.3 18.1-63.9 32z" fill="#4d2419"/></g><g id="XMLID_1585_"><path id="XMLID_589_" d="m23.7 221.8-9.4-3.5c9.1-24 22.2-46 39.2-65.3 3.1-3.6 6.4-7.1 9.8-10.5l7.1 7c-3.2 3.2-6.4 6.6-9.4 10.1-16.1 18.4-28.7 39.3-37.3 62.2z" fill="#4d2419"/></g><g id="XMLID_1582_"><path id="XMLID_581_" d="m264.8 512h-16.3c-37.7 0-74.6-6.7-109.9-19.9-40.7-15.2-75.3-42.2-100.1-77.9s-37.9-77.6-37.9-121c0-15.4 1.7-30.9 5-45.9l9.8 2.2c-3.2 14.3-4.8 29.1-4.8 43.8 0 84 52.8 160.1 131.5 189.6 34.1 12.6 69.9 19.1 106.4 19.1h16.3c36.5 0 72.3-6.5 106.4-19.3 78.6-29.4 131.5-105.6 131.5-189.6 0-49.2-17.9-96.6-50.4-133.6-3.4-3.8-6.9-7.6-10.5-11.2l7.1-7.1c3.8 3.8 7.4 7.7 10.9 11.7 34.1 38.8 52.8 88.6 52.8 140.2 0 43.5-13.1 85.3-37.9 121s-59.4 62.7-100.1 77.9c-35.2 13.3-72.1 20-109.8 20z" fill="#4d2419"/></g><g id="XMLID_80_"><path id="XMLID_580_" d="m446.7 351h-190c-2.8 0-5-2.2-5-5v-26c0-2.8 2.2-5 5-5h114.3v10h-109.3v16h185z" fill="#4d2419"/></g></g></g></svg>