<svg id="Layer_1" enable-background="new 0 0 512 512" height="512" viewBox="0 0 512 512" width="512" xmlns="http://www.w3.org/2000/svg" xmlns:xlink="http://www.w3.org/1999/xlink"><radialGradient id="XMLID_6_" cx="257" cy="182" gradientUnits="userSpaceOnUse" r="251"><stop offset=".7366" stop-color="#ffc970"/><stop offset="1" stop-color="#ffb233"/></radialGradient><linearGradient id="lg1"><stop offset=".4835" stop-color="#ebeae0"/><stop offset="1" stop-color="#d7d5c1"/></linearGradient><linearGradient id="XMLID_7_" gradientUnits="userSpaceOnUse" x1="256" x2="256" xlink:href="#lg1" y1="318.5" y2="497.101"/><linearGradient id="XMLID_8_" gradientUnits="userSpaceOnUse" x1="1.084" x2="75.98" xlink:href="#lg1" y1="54.366" y2="129.263"/><linearGradient id="XMLID_9_" gradientTransform="matrix(-1 0 0 1 1812 0)" gradientUnits="userSpaceOnUse" x1="1301.084" x2="1375.98" xlink:href="#lg1" y1="54.366" y2="129.263"/><linearGradient id="lg2"><stop offset=".4835" stop-color="#ee803a"/><stop offset="1" stop-color="#e36414"/></linearGradient><linearGradient id="XMLID_10_" gradientUnits="userSpaceOnUse" x1="90" x2="90" xlink:href="#lg2" y1="366.473" y2="492.155"/><linearGradient id="XMLID_11_" gradientUnits="userSpaceOnUse" x1="422" x2="422" xlink:href="#lg2" y1="369.473" y2="494.101"/><g id="XMLID_4_"><g id="XMLID_5016_"><path id="XMLID_3497_" d="m507 5-16.7 10.1c-64.7 39.2-138.9 59.9-214.5 59.9h-39.6c-75.6 0-149.8-20.7-214.5-59.9l-16.7-10.1c0 52.7 15.2 104.2 43.8 148.4l4.4 6.8c-31.1 37.3-48.2 84.3-48.2 133 0 86.5 53.7 163.9 134.7 194.3 34.6 12.9 71.2 19.6 108.1 19.6h16.3c36.9 0 73.6-6.6 108.1-19.6 81-30.3 134.7-107.7 134.7-194.3 0-48.6-17.1-95.7-48.2-132.9l4.4-6.8c28.7-44.3 43.9-95.8 43.9-148.5z" fill="url(#XMLID_6_)"/><path id="XMLID_3496_" d="m256 240c-12.4 0-23.9 6.5-30.2 17.2l-8.4 14.1c-6.5 11-18.4 17.7-31.1 17.7-20 0-36.2 16.2-36.2 36.2v165.8c31.5 10.5 64.6 15.9 97.8 15.9h16.3c33.3 0 66.3-5.4 97.8-15.9v-165.8c0-20-16.2-36.2-36.2-36.2-12.8 0-24.6-6.7-31.1-17.7l-8.4-14.1c-6.4-10.7-17.9-17.2-30.3-17.2z" fill="url(#XMLID_7_)"/><path id="XMLID_1586_" d="m53.2 160.2c1.1-1.3 2.2-2.7 3.4-4 15.9-18.1 34.2-33.5 54.3-45.8-42.2-27.2-78.3-63.1-105.9-105.4 0 52.7 15.2 104.2 43.8 148.4z" fill="url(#XMLID_8_)"/><path id="XMLID_396_" d="m458.8 160.2c-1.1-1.3-2.2-2.7-3.4-4-15.9-18.1-34.2-33.5-54.3-45.8 42.2-27.2 78.3-63.1 105.9-105.4 0 52.7-15.2 104.2-43.8 148.4z" fill="url(#XMLID_9_)"/><g fill="#e36414"><path id="XMLID_3844_" d="m9.2 334.5c2.1 10.6 5.1 20.9 8.8 30.9 25.8-10.5 43.6-24.2 40.8-31.9-2.8-7.6-24.1-6.9-49.6 1z"/><path id="XMLID_3843_" d="m58.7 280.6c3.1-8.4-18.5-24-48.2-34.8-2.5 10.7-4.2 21.6-5 32.7 27.2 8.8 50.4 9.9 53.2 2.1z"/><path id="XMLID_3842_" d="m501.5 245.7c-29.7 10.8-51.3 26.4-48.2 34.8 2.9 7.8 26.1 6.7 53.2-2.2-.8-11-2.5-21.9-5-32.6z"/><path id="XMLID_3841_" d="m453.3 333.4c-2.8 7.7 15 21.4 40.8 31.9 3.7-10 6.7-20.3 8.8-30.9-25.6-7.8-46.9-8.5-49.6-1z"/></g><g id="XMLID_3838_"><path id="XMLID_3839_" d="m251 260h10v100h-10z" fill="#b24e10"/></g><g id="XMLID_3836_"><path id="XMLID_3837_" d="m103 303.4h10v41.2h-10z" fill="#b24e10" transform="matrix(.243 .97 -.97 .243 396.124 140.63)"/></g><g id="XMLID_3834_"><path id="XMLID_3835_" d="m87.4 289h41.2v10h-41.2z" fill="#b24e10" transform="matrix(.97 .243 -.243 .97 74.53 -17.416)"/></g><g id="XMLID_3832_"><path id="XMLID_3833_" d="m399 273.4h10v41.2h-10z" fill="#b24e10" transform="matrix(.243 .97 -.97 .243 591.216 -169.252)"/></g><g id="XMLID_3830_"><path id="XMLID_3831_" d="m383.4 319h41.2v10h-41.2z" fill="#b24e10" transform="matrix(.97 .243 -.243 .97 90.644 -88.311)"/></g><path id="XMLID_3829_" d="m261.9 240h-11.7c-7.8 0-14.1 6.3-14.1 14.1 0 3.8 1.5 7.3 4.1 10l15.8 15.9 15.9-15.9c2.7-2.7 4.1-6.2 4.1-10 0-7.8-6.3-14.1-14.1-14.1z" fill="#e36414"/><path id="XMLID_3828_" d="m172.7 80.6c10.8 29.7 26.4 51.2 34.8 48.2 8-2.9 6.7-27.1-2.8-54.9-12-.9-23.9-2.3-35.7-4.3 1.2 3.5 2.4 7.2 3.7 11z" fill="#e36414"/><path id="XMLID_3827_" d="m275.8 75h-39.6c-1.7 0-3.2 0-5.2 0 0 38.7 11.2 70 25 70s25-31.3 25-70c-1.7 0-3.5 0-5.2 0z" fill="#e36414"/><path id="XMLID_3826_" d="m307.2 73.8c-9.4 27.9-10.8 52-2.8 54.9 8.4 3.1 24-18.5 34.8-48.2 1.4-3.7 2.6-7.4 3.7-11-11.8 2-23.7 3.4-35.7 4.3z" fill="#e36414"/><g id="XMLID_2097_"><path id="XMLID_2098_" d="m182 220h20v40h-20z" fill="#1f3e75"/></g><g id="XMLID_2095_"><path id="XMLID_2096_" d="m310 220h20v40h-20z" fill="#1f3e75"/></g><circle id="XMLID_2094_" cx="256" cy="360" fill="#db3429" r="40"/><g id="XMLID_2092_"><path id="XMLID_2093_" d="m217 200h-10c0-8.3-6.7-15-15-15s-15 6.7-15 15h-10c0-13.8 11.2-25 25-25s25 11.2 25 25z" fill="#b24e10"/></g><g id="XMLID_2090_"><path id="XMLID_2091_" d="m345 200h-10c0-8.3-6.7-15-15-15s-15 6.7-15 15h-10c0-13.8 11.2-25 25-25s25 11.2 25 25z" fill="#b24e10"/></g><path id="XMLID_2089_" d="m5 349.8c0 31 14.4 60.2 38.9 79.2 19.6 15.1 31.1 38.5 31.1 63.3v12.7h100c0-63.6-38.2-121-96.9-145.5l-53.9-22.5c-9.1-3.8-19.2 2.9-19.2 12.8z" fill="url(#XMLID_10_)"/><g id="XMLID_2087_"><path id="XMLID_2088_" d="m77.5 420.3-15-17.5c-12.8-14.9-17.3-35.1-12-54l9.6 2.7c-4.4 15.7-.6 32.5 10 44.9l15 17.5z" fill="#e36414"/></g><path id="XMLID_2086_" d="m507 349.8c0 31-14.4 60.2-38.9 79.2-19.6 15.1-31.1 38.5-31.1 63.2v12.8h-100c0-63.6 38.2-121 96.9-145.5l53.9-22.5c9.1-3.8 19.2 2.9 19.2 12.8z" fill="url(#XMLID_11_)"/><g id="XMLID_2084_"><path id="XMLID_2085_" d="m434.5 420.3-7.6-6.5 15-17.5c10.6-12.4 14.3-29.2 10-44.9l9.6-2.7c5.2 18.9.7 39.1-12 54z" fill="#e36414"/></g></g><g id="XMLID_4355_"><g id="XMLID_1404_"><path id="XMLID_3866_" d="m251 280h10v40h-10z" fill="#4d2419"/></g><g id="XMLID_1403_"><path id="XMLID_3851_" d="m103 303.4h10v41.2h-10z" fill="#4d2419" transform="matrix(.243 .97 -.97 .243 396.124 140.63)"/></g><g id="XMLID_1400_"><path id="XMLID_3850_" d="m87.4 289h41.2v10h-41.2z" fill="#4d2419" transform="matrix(.97 .243 -.243 .97 74.53 -17.416)"/></g><g id="XMLID_1390_"><path id="XMLID_3849_" d="m399 273.4h10v41.2h-10z" fill="#4d2419" transform="matrix(.243 .97 -.97 .243 591.216 -169.252)"/></g><g id="XMLID_1389_"><path id="XMLID_3848_" d="m383.4 319h41.2v10h-41.2z" fill="#4d2419" transform="matrix(.97 .243 -.243 .97 90.644 -88.311)"/></g><g id="XMLID_1388_"><path id="XMLID_3847_" d="m182 220h20v40h-20z" fill="#4d2419"/></g><g id="XMLID_1387_"><path id="XMLID_3824_" d="m310 220h20v40h-20z" fill="#4d2419"/></g><g id="XMLID_1386_"><path id="XMLID_3821_" d="m256 285c-1.3 0-2.6-.5-3.5-1.5l-15.9-15.9c-3.6-3.6-5.6-8.4-5.6-13.5 0-10.6 8.6-19.1 19.1-19.1h11.7c10.6 0 19.1 8.6 19.1 19.1 0 5.1-2 9.9-5.6 13.5l-15.9 15.9c-.8 1-2.1 1.5-3.4 1.5zm-5.9-40c-5 0-9.1 4.1-9.1 9.1 0 2.4 1 4.7 2.7 6.5l12.3 12.3 12.3-12.3c1.7-1.7 2.7-4 2.7-6.5 0-5-4.1-9.1-9.1-9.1z" fill="#4d2419"/></g><g id="XMLID_1405_"><path id="XMLID_3800_" d="m256 405c-24.8 0-45-20.2-45-45s20.2-45 45-45 45 20.2 45 45-20.2 45-45 45zm0-80c-19.3 0-35 15.7-35 35s15.7 35 35 35 35-15.7 35-35-15.7-35-35-35z" fill="#4d2419"/></g><g id="XMLID_1436_"><path id="XMLID_3799_" d="m217 200h-10c0-8.3-6.7-15-15-15s-15 6.7-15 15h-10c0-13.8 11.2-25 25-25s25 11.2 25 25z" fill="#4d2419"/></g><g id="XMLID_1435_"><path id="XMLID_3798_" d="m345 200h-10c0-8.3-6.7-15-15-15s-15 6.7-15 15h-10c0-13.8 11.2-25 25-25s25 11.2 25 25z" fill="#4d2419"/></g><g id="XMLID_1438_"><path id="XMLID_3782_" d="m175 510h-100c-2.8 0-5-2.2-5-5v-12.7c0-23-10.9-45.2-29.1-59.3-25.6-19.8-40.9-50.8-40.9-83.2 0-6.3 3.1-12.2 8.4-15.7s11.9-4.1 17.7-1.7l53.9 22.5c60.7 25.4 100 84.3 100 150.1 0 2.8-2.2 5-5 5zm-95-10h89.9c-1.9-59.7-38.3-112.7-93.7-135.9l-53.9-22.5c-2.8-1.2-5.8-.9-8.3.8s-4 4.4-4 7.4c0 29.2 13.8 57.4 37 75.2 20.7 16 33 41.1 33 67.2z" fill="#4d2419"/></g><g id="XMLID_1_"><path id="XMLID_3781_" d="m77.5 420.3-15-17.5c-12.8-14.9-17.3-35.1-12-54l9.6 2.7c-4.4 15.7-.6 32.5 10 44.9l15 17.5z" fill="#4d2419"/></g><g id="XMLID_3_"><path id="XMLID_3734_" d="m437 510h-100c-2.8 0-5-2.2-5-5 0-65.8 39.2-124.7 100-150.1l53.9-22.5c5.8-2.4 12.5-1.8 17.7 1.7 5.3 3.5 8.4 9.4 8.4 15.7 0 32.3-15.3 63.4-40.9 83.1-18.2 14.1-29.1 36.2-29.1 59.3v12.8c0 2.8-2.2 5-5 5zm-94.9-10h89.9v-7.7c0-26.1 12.3-51.2 33-67.2 23.2-17.9 37-46 37-75.2 0-3-1.4-5.7-4-7.4-2.5-1.7-5.6-2-8.3-.8l-53.9 22.5c-55.4 23.1-91.8 76.1-93.7 135.8z" fill="#4d2419"/></g><g id="XMLID_2_"><path id="XMLID_3733_" d="m434.5 420.3-7.6-6.5 15-17.5c10.6-12.4 14.3-29.2 10-44.9l9.6-2.7c5.2 18.9.7 39.1-12 54z" fill="#4d2419"/></g><g id="XMLID_863_"><path id="XMLID_3275_" d="m256 150c-19.5 0-30-38.6-30-74.9 0-2.7 2.2-4.9 4.9-5 1.8 0 3.5-.1 5.3-.1h39.6c1.8 0 3.5 0 5.3.1 2.7.1 4.9 2.3 4.9 5 0 36.3-10.5 74.9-30 74.9zm-19.9-70c.9 37 12.1 60 19.9 60s19-23 19.9-60h-.1-39.6c-.1 0-.1 0-.1 0z" fill="#4d2419"/></g><g id="XMLID_3507_"><path id="XMLID_3274_" d="m506.7 340.4-9.8-2.2c3.3-14.7 5-29.8 5-45 0-47.3-16.7-93.4-47-129.7-1.4-1.7-1.6-4.1-.4-5.9l4.4-6.8c26.5-41 41.2-88.1 42.9-136.7l-9 5.4c-65.4 39.5-140.5 60.5-217 60.5h-39.6c-76.5 0-151.6-21-217.1-60.6l-9-5.4c1.6 48.6 16.3 95.7 42.9 136.7l4.4 6.8c1.2 1.8 1 4.2-.4 5.9-30.3 36.3-47 82.4-47 129.7 0 15.1 1.7 30.1 5 44.8l-9.8 2.2c-3.4-15.3-5.2-31.1-5.2-46.9 0-48.4 16.7-95.6 47-133.3l-2.4-3.7c-29.2-45.2-44.6-97.5-44.6-151.2 0-1.8 1-3.5 2.5-4.4 1.6-.9 3.5-.9 5 .1l16.7 10.1c64 38.7 137.3 59.2 212 59.2h39.6c74.7 0 148-20.5 211.9-59.2l16.7-10.1c1.5-.9 3.5-1 5-.1 1.6.9 2.6 2.6 2.6 4.4 0 53.7-15.4 106-44.6 151.1l-2.4 3.7c30.4 37.7 47 84.9 47 133.3 0 16-1.8 31.8-5.3 47.3z" fill="#4d2419"/></g><g id="XMLID_3506_"><path id="XMLID_3273_" d="m264.2 512h-16.3c-24.9 0-49.9-3-74.1-8.9l2.4-9.7c23.5 5.7 47.6 8.6 71.8 8.6h16.3c24.2 0 48.4-2.9 71.9-8.6l2.4 9.7c-24.5 5.9-49.5 8.9-74.4 8.9z" fill="#4d2419"/></g><g id="XMLID_855_"><path id="XMLID_3253_" d="m53.2 165.2c-.1 0-.2 0-.3 0-1.6-.1-3-.9-3.9-2.3l-4.4-6.8c-29.2-45.1-44.6-97.4-44.6-151.1 0-2.2 1.5-4.2 3.6-4.8 2.1-.6 4.4.2 5.6 2.1 27.3 41.9 62.4 76.9 104.4 104 1.4.9 2.3 2.5 2.3 4.3 0 1.7-.9 3.3-2.4 4.2-19.9 12.2-37.8 27.3-53.2 44.9-1.1 1.3-2.2 2.6-3.3 3.9-.9 1-2.3 1.6-3.8 1.6zm-42.7-143.3c2.9 45.8 17.4 90 42.5 128.8l.8 1.2c14.1-15.9 30.2-29.8 48-41.5-35.7-24.1-66.3-53.8-91.3-88.5z" fill="#4d2419"/></g><g id="XMLID_853_"><path id="XMLID_3250_" d="m458.8 165.2c-1.5 0-2.9-.7-3.8-1.8-1.1-1.3-2.2-2.6-3.3-3.9-15.4-17.5-33.3-32.6-53.2-44.9-1.5-.9-2.4-2.5-2.4-4.2s.8-3.3 2.3-4.3c42-27.1 77.1-62.1 104.4-104 1.2-1.9 3.5-2.7 5.6-2.1s3.6 2.6 3.6 4.8c0 53.7-15.4 106-44.6 151.1l-4.4 6.8c-.9 1.3-2.3 2.2-3.9 2.3-.1.2-.2.2-.3.2zm-48.5-54.8c17.7 11.7 33.8 25.6 48 41.5l.8-1.2c25.1-38.8 39.6-83 42.5-128.8-25.1 34.7-55.7 64.4-91.3 88.5z" fill="#4d2419"/></g><g id="XMLID_852_"><path id="XMLID_3249_" d="m205.8 134c-5.7 0-12-4.8-18.8-14.2-6.8-9.5-13.6-22.8-18.9-37.6-1.4-3.7-2.6-7.5-3.7-11.2l9.6-2.9c1.1 3.5 2.2 7.1 3.5 10.7 11.7 32.3 25.3 45.6 28.5 45.2 2.4-1.6 4.4-18.4-5.8-48.6l9.5-3.2c8.5 25.1 13.5 56.2-.3 61.2-1.3.4-2.4.6-3.6.6z" fill="#4d2419"/></g><g id="XMLID_851_"><path id="XMLID_3248_" d="m306.2 134c-1.2 0-2.3-.2-3.5-.6-13.8-5-8.8-36.1-.3-61.2l9.5 3.2c-10.2 30.2-8.2 47-5.7 48.6 3.1.4 16.6-12.9 28.4-45.2 1.3-3.5 2.5-7 3.5-10.5l9.6 2.9c-1.1 3.7-2.3 7.4-3.7 11.1-5.4 14.8-12.1 28.1-18.9 37.6-6.9 9.4-13.2 14.1-18.9 14.1z" fill="#4d2419"/></g></g></g></svg>