<svg id="Layer_1" enable-background="new 0 0 512 512" height="512" viewBox="0 0 512 512" width="512" xmlns="http://www.w3.org/2000/svg" xmlns:xlink="http://www.w3.org/1999/xlink"><linearGradient id="lg1"><stop offset=".7366" stop-color="#ffc970"/><stop offset="1" stop-color="#ffb233"/></linearGradient><linearGradient id="XMLID_3_" gradientTransform="matrix(-1 0 0 1 -2088 0)" gradientUnits="userSpaceOnUse" x1="-2525.459" x2="-2492.214" xlink:href="#lg1" y1="56.111" y2="104.135"/><linearGradient id="lg2"><stop offset=".7996" stop-color="#ebeae0"/><stop offset="1" stop-color="#d7d5c1"/></linearGradient><radialGradient id="XMLID_5_" cx="-2565.655" cy="86.667" gradientTransform="matrix(-1 0 0 1 -2088 0)" gradientUnits="userSpaceOnUse" r="73.34" xlink:href="#lg2"/><linearGradient id="XMLID_6_" gradientUnits="userSpaceOnUse" x1="74.541" x2="107.786" xlink:href="#lg1" y1="56.111" y2="104.135"/><radialGradient id="XMLID_7_" cx="34.346" cy="86.667" gradientUnits="userSpaceOnUse" r="73.34" xlink:href="#lg2"/><radialGradient id="XMLID_8_" cx="256" cy="291" gradientUnits="userSpaceOnUse" r="234.155" xlink:href="#lg1"/><radialGradient id="XMLID_9_" cx="-2344" cy="291" gradientTransform="matrix(-1 0 0 1 -2088 0)" gradientUnits="userSpaceOnUse" r="234.155" xlink:href="#lg1"/><linearGradient id="XMLID_10_" gradientUnits="userSpaceOnUse" x1="256" x2="256" y1="318.5" y2="497.101"><stop offset=".4835" stop-color="#ebeae0"/><stop offset="1" stop-color="#d7d5c1"/></linearGradient><linearGradient id="XMLID_11_" gradientUnits="userSpaceOnUse" x1="256" x2="256" y1="328" y2="424"><stop offset="0" stop-color="#e25d55"/><stop offset="1" stop-color="#db3429"/></linearGradient><g id="XMLID_1_"><g id="XMLID_4875_"><path id="XMLID_86_" d="m299 163h158c30.5-47.2 31.1-107.8 1.5-155.6l-1.5-2.4h-1.5c-63.4 0-119.5 41.1-138.6 101.6z" fill="url(#XMLID_3_)"/><path id="XMLID_614_" d="m299 163h158c30.5-47.2 31.1-107.8 1.5-155.6l-1.5-2.4z" fill="url(#XMLID_5_)"/><path id="XMLID_2990_" d="m213 163h-158c-30.5-47.2-31.1-107.8-1.5-155.6l1.5-2.4h1.5c63.4 0 119.5 41.1 138.6 101.6z" fill="url(#XMLID_6_)"/><path id="XMLID_2977_" d="m213 163h-158c-30.5-47.2-31.1-107.8-1.5-155.6l1.5-2.4z" fill="url(#XMLID_7_)"/><path id="XMLID_2976_" d="m372.3 487.4c-34.6 12.9-71.2 19.6-108.1 19.6h-16.3c-36.9 0-73.6-6.6-108.1-19.6-81.1-30.3-134.8-107.7-134.8-194.2 0-50.4 18.3-99 51.6-136.9 45.4-51.7 110.8-81.3 179.6-81.3h39.6c68.8 0 134.2 29.6 179.6 81.3 33.3 37.9 51.6 86.5 51.6 136.9 0 86.5-53.7 163.9-134.7 194.2z" fill="url(#XMLID_8_)"/><path id="XMLID_4_" d="m139.7 487.4c34.6 12.9 71.2 19.6 108.1 19.6h16.3c36.9 0 73.6-6.6 108.1-19.6 81-30.3 134.7-107.7 134.7-194.3 0-50.4-18.3-99-51.6-136.9-45.3-51.6-110.7-81.2-179.5-81.2h-39.6c-68.8 0-134.2 29.6-179.6 81.3-33.3 37.8-51.6 86.5-51.6 136.9 0 86.5 53.7 163.9 134.7 194.2z" fill="url(#XMLID_9_)"/><path id="XMLID_2974_" d="m256 240c-12.4 0-23.9 6.5-30.2 17.2l-8.4 14.1c-6.5 11-18.4 17.7-31.1 17.7-20 0-36.2 16.2-36.2 36.2v165.8c31.5 10.5 64.6 15.9 97.8 15.9h16.3c33.3 0 66.3-5.4 97.8-15.9v-165.8c0-20-16.2-36.2-36.2-36.2-12.8 0-24.6-6.7-31.1-17.7l-8.4-14.1c-6.4-10.7-17.9-17.2-30.3-17.2z" fill="url(#XMLID_10_)"/><path id="XMLID_2973_" d="m231 75.1c0 38.6 11.2 69.9 25 69.9s25-31.3 25-69.9c-1.7 0-3.5-.1-5.2-.1h-39.6c-1.7 0-3.5 0-5.2.1z" fill="#e36414"/><path id="XMLID_2972_" d="m207.6 128.7c7.7-2.8 6.8-25.3-1.7-51.8-10.9 1.4-21.6 3.5-32.1 6.4 10.7 28.2 25.6 48.4 33.8 45.4z" fill="#e36414"/><path id="XMLID_2971_" d="m306.2 77c-8.5 26.5-9.4 49-1.7 51.8 8.2 3 23.1-17.2 33.8-45.4-10.5-2.9-21.3-5.1-32.1-6.4z" fill="#e36414"/><g id="XMLID_2951_"><path id="XMLID_2952_" d="m251 260h10v60h-10z" fill="#b24e10"/></g><g id="XMLID_2949_"><path id="XMLID_2950_" d="m103 303.4h10v41.2h-10z" fill="#b24e10" transform="matrix(.243 .97 -.97 .243 396.124 140.629)"/></g><g id="XMLID_2947_"><path id="XMLID_2948_" d="m87.4 289h41.2v10h-41.2z" fill="#b24e10" transform="matrix(.97 .243 -.243 .97 74.53 -17.416)"/></g><g id="XMLID_2945_"><path id="XMLID_2946_" d="m399 273.4h10v41.2h-10z" fill="#b24e10" transform="matrix(.243 .97 -.97 .243 591.216 -169.252)"/></g><g id="XMLID_2943_"><path id="XMLID_2944_" d="m383.4 319h41.2v10h-41.2z" fill="#b24e10" transform="matrix(.97 .243 -.243 .97 90.644 -88.311)"/></g><path id="XMLID_2942_" d="m261.9 240h-11.7c-7.8 0-14.1 6.3-14.1 14.1 0 3.8 1.5 7.3 4.1 10l15.8 15.9 15.9-15.9c2.7-2.7 4.1-6.2 4.1-10 0-7.8-6.3-14.1-14.1-14.1z" fill="#e36414"/><g id="XMLID_2889_"><path id="XMLID_2890_" d="m217 260h-10v-20c0-8.3-6.7-15-15-15s-15 6.7-15 15v20h-10v-20c0-13.8 11.2-25 25-25s25 11.2 25 25z" fill="#b24e10"/></g><g id="XMLID_2887_"><path id="XMLID_2888_" d="m345 260h-10v-20c0-8.3-6.7-15-15-15s-15 6.7-15 15v20h-10v-20c0-13.8 11.2-25 25-25s25 11.2 25 25z" fill="#b24e10"/></g><path id="XMLID_2886_" d="m256 414c-26.5 0-48-21.5-48-48v-46h96v46c0 26.5-21.5 48-48 48z" fill="url(#XMLID_11_)"/><path id="XMLID_2885_" d="m297.6 390c-8.3-14.3-23.8-24-41.6-24-17.8 0-33.3 9.7-41.6 24 8.3 14.3 23.8 24 41.6 24 17.8 0 33.3-9.7 41.6-24z" fill="#b3271e"/><g id="XMLID_1805_"><path id="XMLID_1806_" d="m304 325h-96c-13.8 0-25-11.2-25-25h10c0 8.3 6.7 15 15 15h96c8.3 0 15-6.7 15-15h10c0 13.8-11.2 25-25 25z" fill="#b24e10"/></g><g fill="#e36414"><path id="XMLID_1804_" d="m9.2 334.5c2.1 10.6 5.1 20.9 8.8 30.9 25.8-10.5 43.6-24.2 40.8-31.9-2.8-7.6-24.1-6.9-49.6 1z"/><path id="XMLID_1803_" d="m58.7 280.6c3.1-8.4-18.5-24-48.2-34.8-2.5 10.7-4.2 21.6-5 32.7 27.2 8.8 50.4 9.9 53.2 2.1z"/><path id="XMLID_1802_" d="m501.5 245.7c-29.7 10.8-51.3 26.4-48.2 34.8 2.9 7.8 26.1 6.7 53.2-2.2-.8-11-2.5-21.9-5-32.6z"/><path id="XMLID_1801_" d="m453.3 333.4c-2.8 7.7 15 21.4 40.8 31.9 3.7-10 6.7-20.3 8.8-30.9-25.6-7.8-46.9-8.5-49.6-1z"/></g></g><g id="XMLID_565_"><g id="XMLID_610_"><path id="XMLID_4253_" d="m251 280h10v40h-10z" fill="#4d2419"/></g><g id="XMLID_609_"><path id="XMLID_4252_" d="m304 325h-96c-13.8 0-25-11.2-25-25h10c0 8.3 6.7 15 15 15h96c8.3 0 15-6.7 15-15h10c0 13.8-11.2 25-25 25z" fill="#4d2419"/></g><g id="XMLID_608_"><path id="XMLID_4251_" d="m205.9 134c-14.2 0-29.5-29.9-36.8-49l9.3-3.6c11.7 30.8 24.4 42.9 27.5 42.5 2.3-1.5 4.4-16.9-4.8-45.6l9.5-3c2.8 8.6 15.6 51.8-1.3 58-1.2.5-2.3.7-3.4.7z" fill="#4d2419"/></g><g id="XMLID_607_"><path id="XMLID_4250_" d="m306.1 134c-1.1 0-2.3-.2-3.4-.6-17-6.2-4.1-49.4-1.3-58l9.5 3c-9.2 28.7-7.1 44-4.7 45.6 3 .3 15.7-11.7 27.4-42.5l9.3 3.6c-7.2 19-22.5 48.9-36.8 48.9z" fill="#4d2419"/></g><g id="XMLID_606_"><path id="XMLID_4249_" d="m256 150c-19.5 0-30-38.6-30-75h10c0 39.7 11.8 65 20 65s20-25.3 20-65h10c0 36.4-10.5 75-30 75z" fill="#4d2419"/></g><g id="XMLID_605_"><path id="XMLID_4248_" d="m103 303.4h10v41.2h-10z" fill="#4d2419" transform="matrix(.243 .97 -.97 .243 396.124 140.629)"/></g><g id="XMLID_603_"><path id="XMLID_4247_" d="m87.4 289h41.2v10h-41.2z" fill="#4d2419" transform="matrix(.97 .243 -.243 .97 74.53 -17.416)"/></g><g id="XMLID_602_"><path id="XMLID_4246_" d="m399 273.4h10v41.2h-10z" fill="#4d2419" transform="matrix(.243 .97 -.97 .243 591.216 -169.252)"/></g><g id="XMLID_601_"><path id="XMLID_4245_" d="m383.4 319h41.2v10h-41.2z" fill="#4d2419" transform="matrix(.97 .243 -.243 .97 90.644 -88.311)"/></g><g id="XMLID_598_"><path id="XMLID_4242_" d="m256 285c-1.3 0-2.6-.5-3.5-1.5l-15.9-15.9c-3.6-3.6-5.6-8.4-5.6-13.5 0-10.6 8.6-19.1 19.1-19.1h11.7c10.6 0 19.1 8.6 19.1 19.1 0 5.1-2 9.9-5.6 13.5l-15.9 15.9c-.8 1-2.1 1.5-3.4 1.5zm-5.9-40c-5 0-9.1 4.1-9.1 9.1 0 2.4 1 4.7 2.7 6.5l12.3 12.3 12.3-12.3c1.7-1.7 2.7-4 2.7-6.5 0-5-4.1-9.1-9.1-9.1z" fill="#4d2419"/></g><g id="XMLID_597_"><path id="XMLID_4241_" d="m50.8 165.7c-.6-1-1.2-1.9-1.8-2.9-14.6-23.8-22.3-51.1-22.3-79 0-28 7.8-55.3 22.6-79l1.5-2.4c.9-1.5 2.5-2.4 4.2-2.4h1.5c55.1 0 105.7 30 132 78.3l-8.8 4.8c-24.4-44.7-71.1-72.7-122-73.1-28.2 45.5-28.3 102-.3 147.5.6.9 1.1 1.8 1.7 2.7z" fill="#4d2419"/></g><g id="XMLID_596_"><path id="XMLID_4240_" d="m36.6 44.3h125.4v10h-125.4z" fill="#4d2419" transform="matrix(.707 .707 -.707 .707 63.965 -55.785)"/></g><g id="XMLID_594_"><path id="XMLID_4239_" d="m36.6 44.3h125.4v10h-125.4z" fill="#4d2419" transform="matrix(.707 .707 -.707 .707 63.965 -55.785)"/></g><g id="XMLID_593_"><path id="XMLID_4238_" d="m461.2 165.7-8.4-5.4c.6-.9 1.1-1.8 1.7-2.7 28-45.5 27.9-102.1-.3-147.5-50.9.5-97.6 28.4-122 73.1l-8.8-4.8c26.4-48.4 77-78.4 132.1-78.4h1.5c1.7 0 3.3.9 4.2 2.4l1.5 2.4c14.7 23.8 22.5 51.1 22.6 79 0 27.9-7.7 55.2-22.3 79-.6 1-1.2 2-1.8 2.9z" fill="#4d2419"/></g><g id="XMLID_592_"><path id="XMLID_4237_" d="m407.7-13.4h10v125.4h-10z" fill="#4d2419" transform="matrix(.707 .707 -.707 .707 155.746 -277.363)"/></g><g id="XMLID_591_"><path id="XMLID_4236_" d="m264.2 512h-16.3c-37.7 0-74.6-6.7-109.9-19.9-40.7-15.2-75.3-42.2-100.1-77.9-24.8-35.7-37.9-77.6-37.9-121 0-51.7 18.8-101.4 52.8-140.2 3.1-3.6 6.4-7.1 9.8-10.5l7.1 7c-3.2 3.2-6.4 6.6-9.4 10.1-32.4 36.9-50.3 84.4-50.3 133.6 0 84 52.8 160.1 131.5 189.6 34.1 12.8 69.9 19.3 106.4 19.3h16.3c36.5 0 72.3-6.5 106.4-19.3 78.6-29.5 131.4-105.7 131.4-189.6 0-49.2-17.9-96.6-50.4-133.6-3.4-3.8-6.9-7.6-10.5-11.2l7.1-7.1c3.8 3.7 7.4 7.7 10.9 11.7 34.1 38.8 52.8 88.6 52.8 140.2 0 43.5-13.1 85.3-37.9 121s-59.4 62.7-100.1 77.9c-35.1 13.2-72.1 19.9-109.7 19.9z" fill="#4d2419"/></g><g id="XMLID_590_"><path id="XMLID_4235_" d="m411.1 123.1c-39.7-28.2-86.5-43.1-135.3-43.1h-39.6c-48.7 0-95.5 14.9-135.3 43.1l-5.8-8.2c41.5-29.4 90.3-44.9 141.1-44.9h39.6c50.8 0 99.6 15.5 141.1 44.9z" fill="#4d2419"/></g><g id="XMLID_599_"><path id="XMLID_4158_" d="m217 260h-10v-20c0-8.3-6.7-15-15-15s-15 6.7-15 15v20h-10v-20c0-13.8 11.2-25 25-25s25 11.2 25 25z" fill="#4d2419"/></g><g id="XMLID_1265_"><path id="XMLID_4157_" d="m345 260h-10v-20c0-8.3-6.7-15-15-15s-15 6.7-15 15v20h-10v-20c0-13.8 11.2-25 25-25s25 11.2 25 25z" fill="#4d2419"/></g><g id="XMLID_660_"><path id="XMLID_4154_" d="m256 419c-29.2 0-53-23.8-53-53v-46c0-2.8 2.2-5 5-5h96c2.8 0 5 2.2 5 5v46c0 29.2-23.8 53-53 53zm-43-94v41c0 23.7 19.3 43 43 43s43-19.3 43-43v-41z" fill="#4d2419"/></g><g id="XMLID_716_"><path id="XMLID_4151_" d="m256 419c-18.8 0-36.4-10.2-45.9-26.5-.9-1.5-.9-3.5 0-5 9.5-16.3 27-26.5 45.9-26.5s36.4 10.2 45.9 26.5c.9 1.5.9 3.5 0 5-9.5 16.3-27.1 26.5-45.9 26.5zm-35.7-29c8 11.8 21.4 19 35.7 19s27.7-7.2 35.7-19c-8-11.8-21.4-19-35.7-19s-27.7 7.2-35.7 19z" fill="#4d2419"/></g></g></g></svg>