<svg id="Layer_1" enable-background="new 0 0 512 512" height="512" viewBox="0 0 512 512" width="512" xmlns="http://www.w3.org/2000/svg" xmlns:xlink="http://www.w3.org/1999/xlink"><radialGradient id="XMLID_3_" cx="259" cy="329.998" gradientUnits="userSpaceOnUse" r="234.155"><stop offset=".7366" stop-color="#ffc970"/><stop offset="1" stop-color="#ffb233"/></radialGradient><linearGradient id="XMLID_4_" gradientUnits="userSpaceOnUse" x1="256" x2="256" y1="318.5" y2="497.101"><stop offset=".4835" stop-color="#ebeae0"/><stop offset="1" stop-color="#d7d5c1"/></linearGradient><linearGradient id="lg1"><stop offset=".4167" stop-color="#14294d"/><stop offset="1" stop-color="#1f3e75"/></linearGradient><radialGradient id="XMLID_5_" cx="352" cy="240" gradientUnits="userSpaceOnUse" r="45.838" xlink:href="#lg1"/><radialGradient id="XMLID_6_" cx="160" cy="240" gradientUnits="userSpaceOnUse" r="45.838" xlink:href="#lg1"/><g id="XMLID_1_"><g id="XMLID_5156_"><path id="XMLID_1566_" d="m507 95c-56.8-13.3-115-20-173.3-20h-57.9-19.8-19.8-57.9c-58.3 0-116.5 6.7-173.3 20l48.1 65.4c-31 37.2-48.1 84.2-48.1 132.8 0 86.5 53.7 163.9 134.7 194.3 34.6 12.9 71.2 19.6 108.1 19.6h16.3c36.9 0 73.6-6.6 108.1-19.6 81-30.3 134.7-107.7 134.7-194.3 0-48.6-17.1-95.6-48.1-132.8z" fill="url(#XMLID_3_)"/><path id="XMLID_1536_" d="m256 240c-12.4 0-23.9 6.5-30.2 17.2l-8.4 14.1c-6.5 11-18.4 17.7-31.1 17.7-20 0-36.2 16.2-36.2 36.2v165.8c31.5 10.5 64.6 15.9 97.8 15.9h16.3c33.3 0 66.3-5.4 97.8-15.9v-165.8c0-20-16.2-36.2-36.2-36.2-12.8 0-24.6-6.7-31.1-17.7l-8.4-14.1c-6.4-10.7-17.9-17.2-30.3-17.2z" fill="url(#XMLID_4_)"/><g fill="#e36414"><path id="XMLID_3779_" d="m9.2 334.5c2.1 10.6 5.1 20.9 8.8 30.9 25.8-10.5 43.6-24.2 40.8-31.9-2.8-7.6-24.1-6.9-49.6 1z"/><path id="XMLID_3778_" d="m58.7 280.6c3.1-8.4-18.5-24-48.2-34.8-2.5 10.7-4.2 21.6-5 32.7 27.2 8.8 50.4 9.9 53.2 2.1z"/><path id="XMLID_3777_" d="m501.5 245.7c-29.7 10.8-51.3 26.4-48.2 34.8 2.9 7.8 26.1 6.7 53.2-2.2-.8-11-2.5-21.9-5-32.6z"/><path id="XMLID_3776_" d="m453.3 333.4c-2.8 7.7 15 21.4 40.8 31.9 3.7-10 6.7-20.3 8.8-30.9-25.6-7.8-46.9-8.5-49.6-1z"/><path id="XMLID_3774_" d="m170.8 75.1c.6 1.8 1.2 3.7 1.9 5.5 10.8 29.7 26.4 51.2 34.8 48.2 7.9-2.9 6.7-26.4-2.4-53.7h-26.9c-2.4-.1-4.9-.1-7.4 0z"/><path id="XMLID_3773_" d="m256 145c13.8 0 25-31.3 25-70h-5.2-19.8-19.8-5.2c0 38.7 11.2 70 25 70z"/><path id="XMLID_3772_" d="m333.7 75h-26.9c-9.1 27.4-10.3 50.9-2.4 53.7 8.4 3.1 24-18.5 34.8-48.2.7-1.8 1.3-3.7 1.9-5.5-2.4 0-4.9 0-7.4 0z"/></g><path id="XMLID_3771_" d="m56.6 156.3c10.7-12.2 22.6-23.2 35.4-32.8l-87-28.5 48.1 65.4c1.1-1.4 2.3-2.8 3.5-4.1z" fill="#ebeae0"/><path id="XMLID_3770_" d="m420 123.4c12.8 9.7 24.6 20.6 35.4 32.8 1.2 1.4 2.4 2.7 3.5 4.1l48.1-65.3z" fill="#ebeae0"/><g id="XMLID_3768_"><path id="XMLID_3769_" d="m251 260h10v78h-10z" fill="#b24e10"/></g><path id="XMLID_3767_" d="m261.9 240h-11.7c-7.8 0-14.1 6.3-14.1 14.1 0 3.8 1.5 7.3 4.1 10l15.8 15.9 15.9-15.9c2.7-2.7 4.1-6.2 4.1-10 0-7.8-6.3-14.1-14.1-14.1z" fill="#e36414"/><circle id="XMLID_2992_" cx="352" cy="240" fill="url(#XMLID_5_)" r="65"/><path id="XMLID_1828_" d="m416 228.7c-3.8 21.6-18.5 41.7-44.4 51.2-12.6 4.7-26.6 4.7-39.3 0-25.8-9.5-40.6-29.6-44.4-51.2-5.1 28.8 9.3 60.3 43.2 73.4 13.4 5.2 28.2 5.2 41.6 0 34-13.1 48.4-44.6 43.3-73.4z" fill="#d7d5c1"/><circle id="XMLID_1827_" cx="160" cy="240" fill="url(#XMLID_6_)" r="65"/><path id="XMLID_1826_" d="m224 228.7c-3.8 21.6-18.5 41.7-44.4 51.2-12.6 4.7-26.6 4.7-39.3 0-25.8-9.5-40.6-29.6-44.4-51.2-5.1 28.8 9.3 60.3 43.2 73.4 13.4 5.2 28.2 5.2 41.6 0 34-13.1 48.4-44.6 43.3-73.4z" fill="#d7d5c1"/><circle id="XMLID_1824_" cx="135" cy="215" fill="#f5f5f0" r="15"/><circle id="XMLID_1822_" cx="327" cy="215" fill="#f5f5f0" r="15"/><path id="XMLID_1821_" d="m278.3 338.3-22.3-18.3-22.3 18.3c-7.3 6-3.1 17.7 6.3 17.7h32c9.4 0 13.6-11.8 6.3-17.7z" fill="#db3429"/><g id="XMLID_1819_"><path id="XMLID_1820_" d="m43 303.4h10v41.2h-10z" fill="#b24e10" transform="matrix(.243 .97 -.97 .243 350.679 198.837)"/></g><g id="XMLID_1816_"><path id="XMLID_1817_" d="m27.4 289h41.2v10h-41.2z" fill="#b24e10" transform="matrix(.97 .243 -.243 .97 72.739 -2.864)"/></g><g id="XMLID_1814_"><path id="XMLID_1815_" d="m459 273.4h10v41.2h-10z" fill="#b24e10" transform="matrix(.243 .97 -.97 .243 636.661 -227.46)"/></g><g id="XMLID_1811_"><path id="XMLID_1813_" d="m443.4 319h41.2v10h-41.2z" fill="#b24e10" transform="matrix(.97 .243 -.243 .97 92.435 -102.863)"/></g><g id="XMLID_1809_"><path id="XMLID_1810_" d="m140 160v-10c11.6 0 22.4-4.5 30.6-12.7l5.9-5.9 7.1 7.1-5.9 5.9c-10.1 10.1-23.5 15.6-37.7 15.6z" fill="#b24e10"/></g><g id="XMLID_1807_"><path id="XMLID_1808_" d="m372 160c-14.2 0-27.6-5.5-37.7-15.6l-5.9-5.9 7.1-7.1 5.9 5.9c8.2 8.2 19 12.7 30.6 12.7z" fill="#b24e10"/></g><circle id="XMLID_684_" cx="382" cy="215" fill="#d7d5c1" r="12"/><circle id="XMLID_683_" cx="190" cy="215" fill="#d7d5c1" r="12"/><circle id="XMLID_682_" cx="362" cy="250" fill="#d7d5c1" r="10"/><circle id="XMLID_681_" cx="170" cy="250" fill="#d7d5c1" r="10"/></g><g id="XMLID_4495_"><g id="XMLID_579_"><path id="XMLID_905_" d="m256 150c-19.5 0-30-38.6-30-75h10c0 39.7 11.8 65 20 65s20-25.3 20-65h10c0 36.4-10.5 75-30 75z" fill="#4d2419"/></g><g id="XMLID_578_"><path id="XMLID_870_" d="m205.8 134c-5.7 0-12-4.8-18.8-14.2-6.8-9.5-13.6-22.8-18.9-37.6-.7-1.9-1.3-3.8-2-5.6-.5-1.5-.3-3.2.7-4.5.9-1.3 2.4-2.1 4-2.1h1.1 6.5 26.9c2.2 0 4.1 1.4 4.7 3.4 8.2 24.6 12.9 55.1-.7 60-1.2.4-2.3.6-3.5.6zm-27.9-54c11.5 31 24.5 44 27.9 44h.1c2.3-1.5 4.2-16.7-4.3-44h-23.2c-.2 0-.4 0-.5 0z" fill="#4d2419"/></g><g id="XMLID_577_"><path id="XMLID_846_" d="m306.2 134c-1.2 0-2.3-.2-3.5-.6-13.5-4.9-8.8-35.4-.7-60 .7-2 2.6-3.4 4.7-3.4h26.9 6.5 1.1c1.6 0 3.1.8 4 2.1s1.2 3 .7 4.5c-.6 1.9-1.3 3.8-2 5.6-5.4 14.8-12.1 28.1-18.9 37.6s-13.1 14.2-18.8 14.2zm4.2-54c-8.5 27.3-6.6 42.5-4.3 44.1 3 .3 16.3-12.6 27.9-44.1-.1 0-.3 0-.4 0z" fill="#4d2419"/></g><g id="XMLID_576_"><path id="XMLID_842_" d="m264.2 512h-16.3c-37.7 0-74.6-6.7-109.9-19.9-40.7-15.2-75.3-42.2-100.1-77.9-24.8-35.7-37.9-77.6-37.9-121 0-48.3 16.6-95.3 46.8-132.9l-45.8-62.3c-1-1.4-1.2-3.1-.7-4.7.6-1.6 1.9-2.8 3.6-3.1 57.1-13.4 115.8-20.2 174.4-20.2h155.4c58.6 0 117.3 6.8 174.4 20.1 1.6.4 3 1.6 3.6 3.1.6 1.6.3 3.3-.7 4.7l-45.8 62.3c30.2 37.6 46.8 84.7 46.8 132.9 0 43.5-13.1 85.3-37.9 121s-59.4 62.7-100.1 77.9c-35.2 13.3-72.2 20-109.8 20zm-250.7-413.8 43.6 59.3c1.4 1.9 1.3 4.4-.2 6.2-30.2 36.2-46.9 82.2-46.9 129.5 0 84 52.8 160.1 131.5 189.6 34.1 12.8 69.9 19.3 106.4 19.3h16.3c36.5 0 72.2-6.5 106.4-19.3 78.6-29.5 131.4-105.7 131.4-189.6 0-47.3-16.7-93.3-46.9-129.6-1.5-1.8-1.5-4.3-.2-6.2l43.6-59.3c-54.1-12-109.5-18.1-164.8-18.1h-155.4c-55.3 0-110.7 6.1-164.8 18.2z" fill="#4d2419"/></g><g id="XMLID_567_"><path id="XMLID_838_" d="m53.1 165.4c-.1 0-.1 0-.2 0-1.5 0-3-.8-3.9-2l-48-65.4c-1.3-1.8-1.3-4.1 0-5.9s3.5-2.5 5.6-1.8l87 28.4c1.8.6 3.1 2.1 3.4 3.9s-.4 3.7-1.9 4.8c-12.6 9.5-24.3 20.4-34.6 32.2-1.1 1.2-2.2 2.5-3.4 4-1.1 1.1-2.5 1.8-4 1.8zm-34.8-60.8 35.1 47.8c8.6-9.7 18-18.8 28.1-27.1z" fill="#4d2419"/></g><g id="XMLID_566_"><path id="XMLID_804_" d="m458.9 165.4c-1.5 0-2.9-.7-3.8-1.8-1.2-1.5-2.4-2.8-3.4-4-10.4-11.8-22-22.6-34.6-32.2-1.5-1.1-2.2-3-1.9-4.8s1.6-3.3 3.4-3.9l87-28.4c2.1-.7 4.3.1 5.6 1.8 1.3 1.8 1.3 4.1 0 5.9l-48.1 65.4c-.9 1.2-2.3 2-3.9 2-.2 0-.2 0-.3 0zm-28.4-40.1c10.1 8.3 19.5 17.4 28.1 27.1l35.1-47.8z" fill="#4d2419"/></g><g id="XMLID_649_"><path id="XMLID_770_" d="m251 280h10v40h-10z" fill="#4d2419"/></g><g id="XMLID_643_"><path id="XMLID_763_" d="m256 285c-1.3 0-2.6-.5-3.5-1.5l-15.9-15.9c-3.6-3.6-5.6-8.4-5.6-13.5 0-10.6 8.6-19.1 19.1-19.1h11.7c10.6 0 19.1 8.6 19.1 19.1 0 5.1-2 9.9-5.6 13.5l-15.9 15.9c-.8 1-2.1 1.5-3.4 1.5zm-5.9-40c-5 0-9.1 4.1-9.1 9.1 0 2.4 1 4.7 2.7 6.5l12.3 12.3 12.3-12.3c1.7-1.7 2.7-4 2.7-6.5 0-5-4.1-9.1-9.1-9.1z" fill="#4d2419"/></g><g id="XMLID_929_"><path id="XMLID_760_" d="m135 235c-11 0-20-9-20-20s9-20 20-20 20 9 20 20-9 20-20 20zm0-30c-5.5 0-10 4.5-10 10s4.5 10 10 10 10-4.5 10-10-4.5-10-10-10z" fill="#4d2419"/></g><g id="XMLID_953_"><path id="XMLID_733_" d="m327 235c-11 0-20-9-20-20s9-20 20-20 20 9 20 20-9 20-20 20zm0-30c-5.5 0-10 4.5-10 10s4.5 10 10 10 10-4.5 10-10-4.5-10-10-10z" fill="#4d2419"/></g><g id="XMLID_687_"><path id="XMLID_690_" d="m352 310c-38.6 0-70-31.4-70-70s31.4-70 70-70 70 31.4 70 70-31.4 70-70 70zm0-130c-33.1 0-60 26.9-60 60s26.9 60 60 60 60-26.9 60-60-26.9-60-60-60z" fill="#4d2419"/></g><g id="XMLID_930_"><path id="XMLID_686_" d="m160 310c-38.6 0-70-31.4-70-70s31.4-70 70-70 70 31.4 70 70-31.4 70-70 70zm0-130c-33.1 0-60 26.9-60 60s26.9 60 60 60 60-26.9 60-60-26.9-60-60-60z" fill="#4d2419"/></g><g id="XMLID_797_"><path id="XMLID_679_" d="m272 361h-32c-6.4 0-12-3.9-14.1-10s-.3-12.6 4.6-16.7l22.3-18.3c1.8-1.5 4.5-1.5 6.3 0l22.3 18.3c5 4.1 6.8 10.6 4.6 16.7s-7.6 10-14 10zm-16-34.5-19.2 15.7c-2.5 2.1-1.8 4.8-1.5 5.5.3.8 1.4 3.3 4.7 3.3h32c3.3 0 4.4-2.5 4.7-3.3s1-3.5-1.5-5.5z" fill="#4d2419"/></g><g id="XMLID_893_"><path id="XMLID_678_" d="m43 303.4h10v41.2h-10z" fill="#4d2419" transform="matrix(.243 .97 -.97 .243 350.679 198.837)"/></g><g id="XMLID_876_"><path id="XMLID_675_" d="m27.4 289h41.2v10h-41.2z" fill="#4d2419" transform="matrix(.97 .243 -.243 .97 72.739 -2.864)"/></g><g id="XMLID_875_"><path id="XMLID_674_" d="m459 273.4h10v41.2h-10z" fill="#4d2419" transform="matrix(.243 .97 -.97 .243 636.661 -227.46)"/></g><g id="XMLID_874_"><path id="XMLID_673_" d="m443.4 319h41.2v10h-41.2z" fill="#4d2419" transform="matrix(.97 .243 -.243 .97 92.435 -102.863)"/></g><g id="XMLID_917_"><path id="XMLID_667_" d="m140 160v-10c11.6 0 22.4-4.5 30.6-12.7l5.9-5.9 7.1 7.1-5.9 5.9c-10.1 10.1-23.5 15.6-37.7 15.6z" fill="#4d2419"/></g><g id="XMLID_916_"><path id="XMLID_666_" d="m372 160c-14.2 0-27.6-5.5-37.7-15.6l-5.9-5.9 7.1-7.1 5.9 5.9c8.2 8.2 19 12.7 30.6 12.7z" fill="#4d2419"/></g><g id="XMLID_635_"><path id="XMLID_653_" d="m160 275c-19.3 0-35-15.7-35-35 0-4.1.7-8.2 2.1-12.1l9.4 3.4c-1 2.8-1.5 5.7-1.5 8.6 0 13.8 11.2 25 25 25s25-11.2 25-25-11.2-25-25-25c-3 0-6 .5-8.7 1.6l-3.5-9.4c3.9-1.5 8-2.2 12.2-2.2 19.3 0 35 15.7 35 35s-15.7 35.1-35 35.1z" fill="#4d2419"/></g><g id="XMLID_641_"><path id="XMLID_652_" d="m352 275c-19.3 0-35-15.7-35-35 0-4.1.7-8.2 2.1-12.1l9.4 3.4c-1 2.8-1.5 5.7-1.5 8.6 0 13.8 11.2 25 25 25s25-11.2 25-25-11.2-25-25-25c-3 0-6 .5-8.7 1.6l-3.5-9.4c3.9-1.5 8-2.2 12.2-2.2 19.3 0 35 15.7 35 35s-15.7 35.1-35 35.1z" fill="#4d2419"/></g><g id="XMLID_731_"><path id="XMLID_647_" d="m352 311c-7.7 0-15.3-1.4-22.6-4.2-17.1-6.6-30.6-18.1-38.8-33.1-7.6-13.9-10.3-30.2-7.5-45.8.4-2.4 2.5-4.1 4.9-4.1s4.5 1.7 4.9 4.1c3.8 21.9 18.9 39.1 41.2 47.4 11.5 4.3 24.3 4.3 35.8 0 22.3-8.2 37.3-25.5 41.2-47.4.4-2.4 2.5-4.1 4.9-4.1s4.5 1.7 4.9 4.1c2.8 15.7.1 32-7.5 45.8-8.2 15-21.7 26.5-38.8 33.1-7.3 2.8-14.9 4.2-22.6 4.2zm-57.4-53.4c4.9 16.3 17 31.6 38.4 39.8 12.2 4.7 25.7 4.7 38 0 21.3-8.3 33.5-23.5 38.4-39.8-8.4 12-20.7 21.3-36 27-13.8 5.1-28.9 5.1-42.7 0-15.3-5.7-27.6-15-36.1-27z" fill="#4d2419"/></g><g id="XMLID_730_"><path id="XMLID_644_" d="m160 311c-7.7 0-15.3-1.4-22.6-4.2-17.1-6.6-30.6-18.1-38.8-33.1-7.6-13.9-10.3-30.2-7.5-45.8.4-2.4 2.5-4.1 4.9-4.1s4.5 1.7 4.9 4.1c3.8 21.9 18.9 39.1 41.2 47.4 11.5 4.3 24.3 4.3 35.8 0 22.3-8.2 37.3-25.5 41.2-47.4.4-2.4 2.5-4.1 4.9-4.1s4.5 1.7 4.9 4.1c2.8 15.7.1 32-7.5 45.8-8.2 15-21.7 26.5-38.8 33.1-7.3 2.8-14.9 4.2-22.6 4.2zm-57.4-53.4c4.9 16.3 17 31.6 38.4 39.8 12.2 4.7 25.7 4.7 38 0 21.3-8.3 33.5-23.5 38.4-39.8-8.4 12-20.7 21.3-36 27-13.8 5.1-28.9 5.1-42.7 0-15.3-5.7-27.6-15-36.1-27z" fill="#4d2419"/></g></g></g></svg>